#N canvas 1091 139 461 376 10;
#X obj 100 102 vsl 15 120 0 100 0 0 empty empty empty 0 -9 0 10 -262144
-1 -1 11900 1;
#X obj 100 230 int;
#X obj 100 280 s slider\$1s;
#X obj 193 271 f;
#X obj 193 216 r save\$1;
#X obj 193 297 s slider-save;
#X msg 193 243 bang;
#X obj 100 69 r slider\$1;
#X connect 0 0 1 0;
#X connect 1 0 2 0;
#X connect 1 0 3 1;
#X connect 3 0 5 0;
#X connect 4 0 6 0;
#X connect 6 0 3 0;
#X connect 7 0 0 0;
#X coords 0 -1 1 1 15 125 2 100 100;
