#N canvas 63 85 558 815 10;
#X obj 145 745 dac~;
#X obj 145 20 r mouseY;
#X obj 145 123 -;
#X obj 145 506 osc~ 880;
#X obj 145 475 sig~;
#X obj 145 577 clip~ -1 1;
#X obj 317 308 r mouseX;
#X obj 317 435 sig~;
#X obj 319 487 r mouseDown;
#X obj 319 553 sig~;
#X obj 319 523 * 0.5;
#X obj 145 448 mtof;
#X obj 145 326 sel 0 1 2 3 4;
#X obj 145 392 +;
#X obj 145 227 t f f;
#X obj 145 268 mod 5;
#X obj 265 262 / 5;
#X obj 265 290 int;
#X obj 265 317 * 12;
#X text 181 44 offset from top of window;
#X text 186 70 height of mouseable area;
#X obj 145 98 swap 1;
#X msg 276 352 10;
#X msg 243 353 7;
#X msg 211 354 5;
#X msg 177 352 3;
#X msg 145 352 0;
#X obj 145 420 + 48;
#X obj 145 152 * 20;
#X obj 145 71 / 479;
#X obj 317 334 - 893;
#X obj 317 360 / 199;
#X text 353 333 offset from left of window;
#X text 358 359 width of mouseable area;
#X obj 317 384 * 4;
#X obj 317 409 + 2;
#X obj 213 652 delwrite~ del 400;
#X obj 213 672 delread~ del 400;
#X obj 145 615 *~;
#X obj 145 541 *~;
#X obj 376 648 delwrite~ del2 300;
#X obj 376 668 delread~ del2 300;
#X obj 168 663 *~ 0.15;
#X obj 331 658 *~ 0.15;
#X obj 145 712 *~ 0.4;
#X obj 192 714 *~ 0.4;
#X obj 145 45 - 128;
#X connect 1 0 46 0;
#X connect 2 0 28 0;
#X connect 3 0 39 0;
#X connect 4 0 3 0;
#X connect 5 0 38 0;
#X connect 6 0 30 0;
#X connect 7 0 39 1;
#X connect 8 0 10 0;
#X connect 9 0 38 1;
#X connect 10 0 9 0;
#X connect 11 0 4 0;
#X connect 12 0 26 0;
#X connect 12 1 25 0;
#X connect 12 2 24 0;
#X connect 12 3 23 0;
#X connect 12 4 22 0;
#X connect 13 0 27 0;
#X connect 14 0 15 0;
#X connect 14 1 16 0;
#X connect 15 0 12 0;
#X connect 16 0 17 0;
#X connect 17 0 18 0;
#X connect 18 0 13 1;
#X connect 21 0 2 0;
#X connect 21 1 2 1;
#X connect 22 0 13 0;
#X connect 23 0 13 0;
#X connect 24 0 13 0;
#X connect 25 0 13 0;
#X connect 26 0 13 0;
#X connect 27 0 11 0;
#X connect 28 0 14 0;
#X connect 29 0 21 0;
#X connect 30 0 31 0;
#X connect 31 0 34 0;
#X connect 34 0 35 0;
#X connect 35 0 7 0;
#X connect 37 0 42 0;
#X connect 38 0 36 0;
#X connect 38 0 40 0;
#X connect 38 0 44 0;
#X connect 38 0 45 0;
#X connect 39 0 5 0;
#X connect 41 0 43 0;
#X connect 42 0 36 0;
#X connect 42 0 44 0;
#X connect 43 0 40 0;
#X connect 43 0 45 0;
#X connect 44 0 0 0;
#X connect 45 0 0 1;
#X connect 46 0 29 0;
