#N canvas 335 24 774 808 10;
#X obj 476 484 loadbang;
#X obj 476 541 metro 1000;
#X obj 476 600 print fromPd;
#X obj 336 466 r blah;
#X msg 476 514 1;
#X obj 336 496 / 100;
#X obj 336 601 print blahDivided;
#X obj 476 568 f;
#X obj 502 568 + 1;
#X obj 190 549 osc~ 440;
#X obj 190 580 *~ 0.3;
#X obj 190 614 dac~;
#X obj 336 526 f;
#X connect 0 0 4 0;
#X connect 1 0 7 0;
#X connect 3 0 5 0;
#X connect 4 0 1 0;
#X connect 5 0 12 0;
#X connect 7 0 8 0;
#X connect 7 0 2 0;
#X connect 8 0 7 1;
#X connect 9 0 10 0;
#X connect 10 0 11 0;
#X connect 10 0 11 1;
#X connect 12 0 10 1;
#X connect 12 0 6 0;
