#N canvas 335 65 804 889 10;
#X obj 46 837 dac~;
#X obj 46 804 *~ 0.6;
#X obj 92 806 *~ 0.6;
#X obj 369 724 delwrite~ del 400;
#X obj 369 744 delread~ del 400;
#X obj 542 726 delwrite~ del2 300;
#X obj 542 746 delread~ del2 300;
#X obj 45 558 osc~ 880;
#X obj 45 527 sig~;
#X obj 421 346 r mouseDown;
#X obj 45 500 mtof;
#X obj 45 333 +;
#X obj 45 139 t f f;
#X obj 45 192 mod 5;
#X obj 85 192 / 5;
#X obj 85 220 int;
#X obj 85 247 * 12;
#X text 81 26 offset from top of window;
#X text 86 52 height of mouseable area;
#X obj 45 298 f;
#X obj 75 298 f;
#X obj 105 298 f;
#X obj 135 298 f;
#X obj 165 298 f;
#X obj 195 298 f;
#X obj 225 298 f;
#X obj 255 298 f;
#N canvas 200 281 444 529 scales 0;
#X msg 77 189 5 0 2 5 7 9;
#X msg 87 209 9 0 2 4 5 6 7 8 9 11;
#X msg 97 229 7 0 3 4 6 8 9 11;
#X msg 107 249 6 0 4 6 8 9 11;
#X msg 117 269 7 0 2 3 5 7 8 11;
#X msg 127 289 7 0 2 3 5 6 8 10;
#X msg 157 349 7 0 1 3 5 7 8 10;
#X msg 167 369 7 0 1 3 4 7 8 9;
#X msg 177 389 7 0 2 4 5 7 8 10;
#X msg 187 409 7 0 1 2 3 6 8 10;
#X msg 197 429 8 0 2 3 5 7 8 9 11;
#X obj 47 462 outlet;
#X msg 57 149 6 0 1 2 5 7 10;
#X msg 67 169 8 0 1 3 4 6 7 8 10;
#X obj 47 47 inlet;
#X obj 109 21 loadbang;
#X obj 47 70 select Chromatic Blues BluesDiminished Dorian FullMinor
HarmonicMajor Hawaiian IonianSharp5 JazzMinor Lydian Major Mixolydian
Oriental SuperLocrian Verdi Zirafkend;
#X msg 47 129 12 0 1 2 3 4 5 6 7 8 9 10 11;
#X msg 137 308 7 0 2 5 7 8 9 11;
#X msg 147 329 7 0 2 3 5 7 9 10;
#X connect 0 0 11 0;
#X connect 1 0 11 0;
#X connect 2 0 11 0;
#X connect 3 0 11 0;
#X connect 4 0 11 0;
#X connect 5 0 11 0;
#X connect 6 0 11 0;
#X connect 7 0 11 0;
#X connect 8 0 11 0;
#X connect 9 0 11 0;
#X connect 10 0 11 0;
#X connect 12 0 11 0;
#X connect 13 0 11 0;
#X connect 14 0 16 0;
#X connect 15 0 17 0;
#X connect 16 0 17 0;
#X connect 16 1 12 0;
#X connect 16 2 13 0;
#X connect 16 3 0 0;
#X connect 16 4 1 0;
#X connect 16 5 2 0;
#X connect 16 6 3 0;
#X connect 16 7 4 0;
#X connect 16 8 5 0;
#X connect 16 9 18 0;
#X connect 16 10 19 0;
#X connect 16 11 6 0;
#X connect 16 12 7 0;
#X connect 16 13 8 0;
#X connect 16 14 9 0;
#X connect 16 15 10 0;
#X connect 17 0 11 0;
#X connect 18 0 11 0;
#X connect 19 0 11 0;
#X restore 100 129 pd scales;
#X obj 100 100 r scaleSelector;
#X obj 102 376 r keySelector;
#X obj 45 51 / 750;
#X obj 45 27 - 338;
#X obj 45 2 r mouseX;
#X obj 45 623 clip~ -1 1;
#X obj 125 776 / 100;
#X obj 125 750 r slider1s;
#X obj 513 650 / 200;
#X obj 175 558 osc~ 880;
#X obj 175 527 sig~;
#X obj 175 500 mtof;
#X obj 175 471 + 5;
#X obj 190 446 int;
#X obj 45 594 *~ 1;
#X obj 235 557 / 100;
#X obj 45 366 t b f;
#X obj 640 305 * 10;
#X obj 501 337 * 2;
#X obj 571 303 / 100;
#X obj 45 648 *~;
#X obj 421 446 spigot;
#X msg 421 471 127;
#X obj 106 557 / 100;
#X obj 190 394 r slider4s;
#X obj 431 280 r slider5s;
#X obj 501 279 r slider6s;
#X obj 571 279 r slider7s;
#X obj 640 279 r slider8s;
#X obj 513 624 r slider9s;
#N canvas 0 22 582 403 tremolo 0;
#X obj 232 48 osc~ 5;
#X obj 232 150 /~ 2;
#X obj 232 171 +~ 0.5;
#X obj 141 232 inlet~;
#X obj 141 314 outlet~;
#X obj 307 187 swap 1;
#X obj 307 208 -;
#X obj 232 253 +~ 0;
#X obj 232 192 *~ 1;
#X obj 307 229 / 2;
#N canvas 0 22 450 300 clipper 0;
#X obj 135 158 clip~;
#X obj 135 135 inlet~;
#X obj 135 221 outlet~;
#X obj 210 108 * -1;
#X msg 233 149 1;
#X obj 233 170 /;
#X obj 233 129 t b f;
#X obj 187 88 t f f f;
#X obj 135 192 *~ 1;
#X obj 187 66 min 0.999;
#X obj 187 45 max 0.001;
#X obj 187 24 inlet shape;
#X connect 0 0 8 0;
#X connect 1 0 0 0;
#X connect 3 0 0 1;
#X connect 4 0 5 0;
#X connect 5 0 8 1;
#X connect 6 0 4 0;
#X connect 6 1 5 1;
#X connect 7 0 0 2;
#X connect 7 1 3 0;
#X connect 7 2 6 0;
#X connect 8 0 2 0;
#X connect 9 0 7 0;
#X connect 10 0 9 0;
#X connect 11 0 10 0;
#X restore 232 89 pd clipper;
#X obj 307 140 max 0;
#X obj 307 161 min 1;
#X obj 141 282 *~;
#X obj 398 36 route freq shape depth;
#X obj 398 11 inlet;
#X msg 461 118 1;
#X obj 474 94 loadbang;
#X connect 0 0 10 0;
#X connect 1 0 2 0;
#X connect 2 0 8 0;
#X connect 3 0 13 0;
#X connect 5 0 6 0;
#X connect 5 1 6 1;
#X connect 6 0 9 0;
#X connect 7 0 13 1;
#X connect 8 0 7 0;
#X connect 9 0 7 1;
#X connect 10 0 1 0;
#X connect 11 0 12 0;
#X connect 12 0 5 0;
#X connect 12 0 8 1;
#X connect 13 0 4 0;
#X connect 14 0 0 0;
#X connect 14 1 10 1;
#X connect 14 2 11 0;
#X connect 15 0 14 0;
#X connect 16 0 10 1;
#X connect 17 0 16 0;
#X restore 45 674 pd tremolo;
#X obj 45 705 *~ 1;
#X msg 223 645 depth \$1;
#X obj 223 622 / 100;
#X obj 223 599 r slider11s;
#X obj 355 556 r slider10s;
#X obj 355 607 pow 2;
#X obj 355 582 / 100;
#X msg 356 652 freq \$1;
#X obj 421 371 t f f;
#X obj 421 399 sel 1 0;
#X msg 472 431 0;
#X obj 285 298 f;
#X obj 315 298 f;
#X obj 345 298 f;
#X obj 45 272 sel 0 1 2 3 4 5 6 7 8 9 10 11;
#X obj 319 734 *~ 0;
#X obj 492 735 *~ 0;
#X obj 299 600 loadbang;
#X msg 299 625 0;
#X obj 641 333 max 15;
#X obj 235 531 r slider3s;
#X obj 106 531 r slider2s;
#X obj 175 594 *~ 0;
#X obj 356 629 * 10;
#X obj 45 452 + 47;
#X obj 102 402 + 47;
#X obj 100 158 unpack f f f f f f f f f f f f f;
#X obj 375 298 f;
#X obj 45 94 * 32;
#X text 441 259 Attack;
#X text 511 259 Decay;
#X text 583 259 Sustain;
#X text 653 259 Release;
#X text 521 602 Delay;
#X text 135 730 Volume;
#X text 117 512 OSC 1;
#X text 247 512 OSC 2;
#X text 204 373 Freq;
#X obj 519 86 r presetSelector;
#X obj 190 418 / 8.3333;
#X obj 431 324 * 10;
#N canvas 60 623 706 357 c_adsr_____________ 0;
#X obj 122 275 line~;
#X text 66 188 velocity;
#X text 190 189 attack time;
#X obj 220 26 inlet attack;
#X obj 341 27 inlet decay;
#X obj 329 141 del 100;
#X obj 296 197 pack f f;
#X obj 417 27 inlet sustain;
#X obj 329 166 f;
#X obj 505 27 inlet release;
#X obj 122 307 outlet~;
#X obj 341 83 t f f;
#X obj 368 112 +;
#X obj 167 162 t f f;
#X obj 122 101 t f b b b;
#X msg 122 249 \$1 \$2;
#X obj 122 151 / 127;
#X obj 223 52 t b f;
#X obj 603 28 inlet release-bang;
#X obj 438 187 pack 0 100;
#X obj 341 56 f 100;
#X obj 122 188 pack f 100;
#X floatatom 218 155 5 0 0 0 - - -;
#X obj 185 277 line;
#X floatatom 185 301 5 0 0 0 - - -;
#X obj 122 28 inlet;
#X connect 0 0 10 0;
#X connect 3 0 17 0;
#X connect 4 0 20 0;
#X connect 5 0 8 0;
#X connect 6 0 15 0;
#X connect 7 0 8 1;
#X connect 8 0 6 0;
#X connect 9 0 19 1;
#X connect 11 0 6 1;
#X connect 11 1 12 0;
#X connect 12 0 5 1;
#X connect 13 0 21 1;
#X connect 13 0 22 0;
#X connect 13 1 12 1;
#X connect 14 0 16 0;
#X connect 14 1 5 0;
#X connect 14 3 20 0;
#X connect 15 0 0 0;
#X connect 15 0 23 0;
#X connect 16 0 21 0;
#X connect 17 0 20 0;
#X connect 17 1 13 0;
#X connect 18 0 19 0;
#X connect 19 0 15 0;
#X connect 20 0 11 0;
#X connect 21 0 15 0;
#X connect 23 0 24 0;
#X connect 25 0 14 0;
#X restore 421 504 pd c_adsr_____________;
#X msg 397 425 bang;
#X obj 274 63 r debug-notes;
#X msg 316 90 1;
#X msg 341 91 0;
#X obj 274 92 int;
#X floatatom 650 360 5 0 0 0 - - -;
#N canvas 155 526 765 524 presets 0;
#X obj 47 42 inlet;
#X obj 109 21 loadbang;
#X obj 47 70 select 0 1 2 3 4 5 6 7 8 9 10 11 12 13 14 15;
#X obj 47 307 s slider1;
#X obj 63 329 s slider2;
#X obj 79 350 s slider3;
#X obj 95 372 s slider4;
#X obj 111 307 s slider5;
#X obj 127 329 s slider6;
#X obj 143 350 s slider7;
#X obj 159 372 s slider8;
#X obj 175 307 s slider9;
#X obj 191 329 s slider10;
#X obj 207 350 s slider11;
#X text 66 138 Spooky sine;
#X text 82 184 French bass;
#X text 98 229 Aliens landing;
#X obj 47 284 unpack f f f f f f f f f f f s f f;
#X msg 99 249 100 37 63 93 0 100 9 84 100 98 10 HarmonicMajor 3;
#X msg 67 156 100 79 19 9 30 77 62 31 36 88 23 Oriental 6;
#X text 46 93 Plain sine;
#X msg 47 111 100 100 0 0 100 0 19 21 0 0 0 Chromatic;
#X obj 259 407 s scale;
#X obj 262 326 s key;
#X msg 83 205 100 100 41 64 0 100 9 84 0 0 0 Blues 1;
#X connect 0 0 2 0;
#X connect 1 0 21 0;
#X connect 2 0 21 0;
#X connect 2 1 19 0;
#X connect 2 2 24 0;
#X connect 2 3 18 0;
#X connect 17 0 3 0;
#X connect 17 1 4 0;
#X connect 17 2 5 0;
#X connect 17 3 6 0;
#X connect 17 4 7 0;
#X connect 17 5 8 0;
#X connect 17 6 9 0;
#X connect 17 7 10 0;
#X connect 17 8 11 0;
#X connect 17 9 12 0;
#X connect 17 10 13 0;
#X connect 17 11 22 0;
#X connect 17 12 23 0;
#X connect 18 0 17 0;
#X connect 19 0 17 0;
#X connect 21 0 17 0;
#X connect 24 0 17 0;
#X restore 519 114 pd presets;
#X obj 256 798 env~;
#X obj 256 820 / 1.27;
#X obj 256 845 s slider12;
#X connect 1 0 0 0;
#X connect 2 0 0 1;
#X connect 2 0 108 0;
#X connect 4 0 74 0;
#X connect 6 0 75 0;
#X connect 7 0 42 0;
#X connect 8 0 7 0;
#X connect 9 0 67 0;
#X connect 10 0 8 0;
#X connect 11 0 44 0;
#X connect 12 0 13 0;
#X connect 12 1 14 0;
#X connect 13 0 73 0;
#X connect 14 0 15 0;
#X connect 15 0 16 0;
#X connect 16 0 11 1;
#X connect 19 0 11 0;
#X connect 20 0 11 0;
#X connect 21 0 11 0;
#X connect 22 0 11 0;
#X connect 23 0 11 0;
#X connect 24 0 11 0;
#X connect 25 0 11 0;
#X connect 26 0 11 0;
#X connect 27 0 85 0;
#X connect 28 0 27 0;
#X connect 29 0 84 0;
#X connect 30 0 87 0;
#X connect 31 0 30 0;
#X connect 32 0 31 0;
#X connect 33 0 48 0;
#X connect 34 0 1 1;
#X connect 34 0 2 1;
#X connect 35 0 34 0;
#X connect 36 0 74 1;
#X connect 36 0 75 1;
#X connect 37 0 81 0;
#X connect 38 0 37 0;
#X connect 39 0 38 0;
#X connect 40 0 39 0;
#X connect 41 0 40 1;
#X connect 42 0 33 0;
#X connect 43 0 81 1;
#X connect 44 0 101 0;
#X connect 44 1 83 0;
#X connect 45 0 78 0;
#X connect 46 0 100 2;
#X connect 47 0 100 3;
#X connect 48 0 58 0;
#X connect 49 0 50 0;
#X connect 50 0 100 0;
#X connect 51 0 42 1;
#X connect 52 0 98 0;
#X connect 53 0 99 0;
#X connect 54 0 46 0;
#X connect 55 0 47 0;
#X connect 56 0 45 0;
#X connect 57 0 36 0;
#X connect 58 0 59 0;
#X connect 59 0 1 0;
#X connect 59 0 2 0;
#X connect 59 0 3 0;
#X connect 59 0 5 0;
#X connect 60 0 58 1;
#X connect 61 0 60 0;
#X connect 62 0 61 0;
#X connect 63 0 65 0;
#X connect 64 0 82 0;
#X connect 65 0 64 0;
#X connect 66 0 58 1;
#X connect 67 0 49 1;
#X connect 67 1 68 0;
#X connect 68 0 101 0;
#X connect 68 1 69 0;
#X connect 69 0 100 5;
#X connect 70 0 11 0;
#X connect 71 0 11 0;
#X connect 72 0 11 0;
#X connect 73 0 19 0;
#X connect 73 1 20 0;
#X connect 73 2 21 0;
#X connect 73 3 22 0;
#X connect 73 4 23 0;
#X connect 73 5 24 0;
#X connect 73 6 25 0;
#X connect 73 7 26 0;
#X connect 73 8 70 0;
#X connect 73 9 71 0;
#X connect 73 10 72 0;
#X connect 73 11 86 0;
#X connect 74 0 1 0;
#X connect 74 0 3 0;
#X connect 75 0 2 0;
#X connect 75 0 5 0;
#X connect 76 0 77 0;
#X connect 77 0 60 0;
#X connect 78 0 100 4;
#X connect 78 0 106 0;
#X connect 79 0 43 0;
#X connect 80 0 51 0;
#X connect 81 0 33 0;
#X connect 82 0 66 0;
#X connect 83 0 10 0;
#X connect 83 0 40 0;
#X connect 84 0 83 1;
#X connect 85 0 13 1;
#X connect 85 0 14 1;
#X connect 85 1 19 1;
#X connect 85 2 20 1;
#X connect 85 3 21 1;
#X connect 85 4 22 1;
#X connect 85 5 23 1;
#X connect 85 6 24 1;
#X connect 85 7 25 1;
#X connect 85 8 26 1;
#X connect 85 9 70 1;
#X connect 85 10 71 1;
#X connect 85 11 72 1;
#X connect 85 12 86 1;
#X connect 86 0 11 0;
#X connect 87 0 12 0;
#X connect 97 0 107 0;
#X connect 98 0 41 0;
#X connect 99 0 100 1;
#X connect 100 0 48 1;
#X connect 101 0 49 0;
#X connect 102 0 105 0;
#X connect 103 0 67 0;
#X connect 104 0 67 0;
#X connect 108 0 109 0;
#X connect 109 0 110 0;
