#N canvas 626 230 938 584 10;
#X obj 153 92 loadbang;
#X obj 99 76 tgl 15 0 empty empty empty 17 7 0 10 -262144 -1 -1 1 1
;
#X obj 67 96 vsl 15 128 0 30 0 0 empty empty empty 0 -9 0 10 -262144
-1 -1 8551 1;
#X text 403 122 V;
#X text 425 121 OSC1;
#X text 446 111 OSC2;
#X text 475 121 Freq;
#X text 507 121 A;
#X text 534 121 D;
#X text 559 121 S;
#X text 586 119 R;
#X text 607 119 Del;
#X text 631 119 Rate;
#X text 661 119 Depth;
#X text 638 103 Trem;
#X obj 102 144 line;
#X msg 100 123 \$1 10000;
#X obj 99 52 metro 10000;
#X obj 101 30 tgl 15 0 empty empty empty 17 7 0 10 -262144 -1 -1 1
1;
#X obj 99 100 * 25;
#X obj 233 337 until;
#X obj 233 367 f;
#X obj 262 367 + 1;
#X obj 233 394 mod 12;
#X msg 233 275 12;
#X msg 233 425 \; save\$1 1 \;;
#X obj 317 358 r slider-save;
#X msg 317 399 add2 \$1;
#X msg 317 423 100 0 0 0 100 0 19 21 0 0 0;
#X obj 401 141 debug-slider 1;
#X obj 233 306 t f b;
#X msg 282 337 set;
#X obj 475 141 debug-slider 4;
#X obj 427 141 debug-slider 2;
#X obj 453 141 debug-slider 3;
#X obj 501 141 debug-slider 5;
#X obj 527 141 debug-slider 6;
#X obj 553 141 debug-slider 7;
#X obj 579 141 debug-slider 8;
#X obj 605 141 debug-slider 9;
#X obj 631 141 debug-slider 10;
#X obj 657 141 debug-slider 11;
#X obj 683 141 debug-slider 12;
#X obj 69 242 s debug-notes;
#X connect 1 0 19 0;
#X connect 2 0 43 0;
#X connect 15 0 2 0;
#X connect 16 0 15 0;
#X connect 17 0 1 0;
#X connect 18 0 17 0;
#X connect 19 0 16 0;
#X connect 20 0 21 0;
#X connect 21 0 22 0;
#X connect 21 0 23 0;
#X connect 22 0 21 1;
#X connect 23 0 25 0;
#X connect 24 0 30 0;
#X connect 26 0 27 0;
#X connect 27 0 28 0;
#X connect 30 0 20 0;
#X connect 30 1 31 0;
#X connect 31 0 28 0;
