#N canvas 711 144 565 682 8;
#X obj 70 163 sig~;
#X obj 91 136 mtof;
#X obj 91 21 inlet;
#X obj 158 136 / 127;
#X obj 127 198 sqrt;
#X obj 127 177 / 2000;
#X obj 127 218 sig~;
#X obj 8 394 sig~;
#N canvas 274 138 825 522 envelopes 0;
#X obj 116 74 r 0-env1a;
#X obj 144 94 r 0-env1d;
#X obj 172 112 r 0-env1s;
#X obj 201 130 r 0-env1r;
#X obj 60 54 r 0-envelopes;
#X obj 116 122 * 2000;
#X obj 144 142 * 4000;
#X obj 172 164 * 100;
#X obj 201 185 * 7000;
#X obj 60 435 s~ 0-e1;
#N canvas 0 22 960 667 c_adsr 0;
#X obj 115 121 inlet;
#X obj 448 155 inlet;
#X text 111 96 trigger;
#X obj 115 149 sel 0;
#X obj 254 165 t b;
#X obj 176 274 f \$1;
#X obj 176 299 pack 0 \$2;
#X obj 448 291 del \$2;
#X obj 472 314 f \$4;
#X obj 511 389 pack 0 \$3;
#X msg 115 180 stop;
#X obj 622 316 pack 0 \$5;
#X text 445 139 level;
#X obj 511 365 * \$1;
#X obj 468 464 outlet~;
#X text 112 388 and pack with;
#X text 113 408 attack time;
#X text 41 136 if zero;
#X text 42 153 release;
#X text 22 170 and cancel;
#X text 53 187 decay;
#X text 294 282 on attack \, set a;
#X text 288 315 recall sustain value;
#X text 325 388 pack with decay time;
#X text 615 342 on release ramp;
#X text 616 359 back to zero;
#X obj 472 339 * 0.01;
#X text 57 577 Objects such as "f" and "pack" can be given dollar sign
arguments to initialize their contents from adsr's creation arguments.
Inlets are supplied to change them on the fly.;
#X text 23 12 ADSR ENVELOPE;
#X text 498 139 attack;
#X text 565 138 decay;
#X text 619 139 sustain;
#X text 696 139 release;
#X text 212 81 attack;
#X obj 214 102 moses;
#X obj 204 132 t b b;
#X msg 138 300 0;
#X text 30 283 optionally;
#X text 20 301 bash to zero;
#X text 35 256 ATTACK:;
#X text 59 487 When you send this patch a positive trigger it schedules
a line~ to do an attack and decay \, and if zero \, it starts the release
ramp.;
#X text 505 639 Updated for Pd version 0.37;
#X text 265 99 test for negative trigger;
#X text 263 123 if so \, zero;
#X text 264 139 the output;
#X text 288 175 in any case;
#X text 313 365 multiply by peak level;
#X text 290 296 delay for sustain;
#X text 286 338 convert from percent;
#X text 165 350 ... then;
#X text 113 369 recall peak level;
#X text 448 128 peak;
#X text 291 159 ... do this;
#X text 57 539 Negative triggers cause the output to jump to zero and
then attack (instead of attacking from the current location).;
#X text 218 11 Arguments: level \, attack time \, decay time \, sustain
level \, release time. A \, D \, and R are in msec and S is in percent.
This patch is used as an abstraction in various examples.;
#N canvas 228 198 627 317 LICENSE-BSD 0;
#X text 121 56 This software is copyrighted by Miller Puckette \, Reality
Jockey Ltd. and others. The terms (the "Standard Improved BSD License")
apply to all files associated with the software unless explicitly disclaimed
in individual files.;
#X text 123 148 See the file LICENSE.txt for the full license text.
;
#X restore 833 90 pd LICENSE-BSD;
#X obj 448 182 unpack f f f f f;
#X obj 468 439 line~;
#X connect 0 0 3 0;
#X connect 1 0 56 0;
#X connect 3 0 10 0;
#X connect 3 0 11 0;
#X connect 3 1 34 0;
#X connect 4 0 5 0;
#X connect 4 0 7 0;
#X connect 5 0 6 0;
#X connect 6 0 57 0;
#X connect 7 0 8 0;
#X connect 8 0 26 0;
#X connect 9 0 57 0;
#X connect 10 0 7 0;
#X connect 11 0 57 0;
#X connect 13 0 9 0;
#X connect 26 0 13 0;
#X connect 34 0 35 0;
#X connect 34 1 4 0;
#X connect 35 0 4 0;
#X connect 35 1 36 0;
#X connect 36 0 57 0;
#X connect 56 0 5 1;
#X connect 56 0 13 1;
#X connect 56 1 6 1;
#X connect 56 1 7 1;
#X connect 56 2 9 1;
#X connect 56 3 8 1;
#X connect 56 4 11 1;
#X connect 57 0 14 0;
#X restore 60 393 pd c_adsr;
#X msg 126 360 1 10 100 50 300;
#X obj 126 336 loadbang;
#X msg 102 311 \$1 \$2 \$3 \$4 \$5;
#X obj 102 291 pack f f f f f;
#X obj 116 185 t b f;
#X obj 144 208 t b f;
#X obj 172 228 t b f;
#X obj 201 248 t b f;
#X obj 60 184 t a a;
#X obj 366 122 * 2000;
#X obj 394 142 * 4000;
#X obj 422 164 * 100;
#X obj 451 185 * 7000;
#N canvas 0 22 960 667 c_adsr 0;
#X obj 115 121 inlet;
#X obj 448 155 inlet;
#X text 111 96 trigger;
#X obj 115 149 sel 0;
#X obj 254 165 t b;
#X obj 176 274 f \$1;
#X obj 176 299 pack 0 \$2;
#X obj 448 291 del \$2;
#X obj 472 314 f \$4;
#X obj 511 389 pack 0 \$3;
#X msg 115 180 stop;
#X obj 622 316 pack 0 \$5;
#X text 445 139 level;
#X obj 511 365 * \$1;
#X obj 468 464 outlet~;
#X text 112 388 and pack with;
#X text 113 408 attack time;
#X text 41 136 if zero;
#X text 42 153 release;
#X text 22 170 and cancel;
#X text 53 187 decay;
#X text 294 282 on attack \, set a;
#X text 288 315 recall sustain value;
#X text 325 388 pack with decay time;
#X text 615 342 on release ramp;
#X text 616 359 back to zero;
#X obj 472 339 * 0.01;
#X text 57 577 Objects such as "f" and "pack" can be given dollar sign
arguments to initialize their contents from adsr's creation arguments.
Inlets are supplied to change them on the fly.;
#X text 23 12 ADSR ENVELOPE;
#X text 498 139 attack;
#X text 565 138 decay;
#X text 619 139 sustain;
#X text 696 139 release;
#X text 212 81 attack;
#X obj 214 102 moses;
#X obj 204 132 t b b;
#X msg 138 300 0;
#X text 30 283 optionally;
#X text 20 301 bash to zero;
#X text 35 256 ATTACK:;
#X text 59 487 When you send this patch a positive trigger it schedules
a line~ to do an attack and decay \, and if zero \, it starts the release
ramp.;
#X text 505 639 Updated for Pd version 0.37;
#X text 265 99 test for negative trigger;
#X text 263 123 if so \, zero;
#X text 264 139 the output;
#X text 288 175 in any case;
#X text 313 365 multiply by peak level;
#X text 290 296 delay for sustain;
#X text 286 338 convert from percent;
#X text 165 350 ... then;
#X text 113 369 recall peak level;
#X text 448 128 peak;
#X text 291 159 ... do this;
#X text 57 539 Negative triggers cause the output to jump to zero and
then attack (instead of attacking from the current location).;
#X text 218 11 Arguments: level \, attack time \, decay time \, sustain
level \, release time. A \, D \, and R are in msec and S is in percent.
This patch is used as an abstraction in various examples.;
#N canvas 228 198 627 317 LICENSE-BSD 0;
#X text 121 56 This software is copyrighted by Miller Puckette \, Reality
Jockey Ltd. and others. The terms (the "Standard Improved BSD License")
apply to all files associated with the software unless explicitly disclaimed
in individual files.;
#X text 123 148 See the file LICENSE.txt for the full license text.
;
#X restore 833 90 pd LICENSE-BSD;
#X obj 448 182 unpack f f f f f;
#X obj 468 439 line~;
#X connect 0 0 3 0;
#X connect 1 0 56 0;
#X connect 3 0 10 0;
#X connect 3 0 11 0;
#X connect 3 1 34 0;
#X connect 4 0 5 0;
#X connect 4 0 7 0;
#X connect 5 0 6 0;
#X connect 6 0 57 0;
#X connect 7 0 8 0;
#X connect 8 0 26 0;
#X connect 9 0 57 0;
#X connect 10 0 7 0;
#X connect 11 0 57 0;
#X connect 13 0 9 0;
#X connect 26 0 13 0;
#X connect 34 0 35 0;
#X connect 34 1 4 0;
#X connect 35 0 4 0;
#X connect 35 1 36 0;
#X connect 36 0 57 0;
#X connect 56 0 5 1;
#X connect 56 0 13 1;
#X connect 56 1 6 1;
#X connect 56 1 7 1;
#X connect 56 2 9 1;
#X connect 56 3 8 1;
#X connect 56 4 11 1;
#X connect 57 0 14 0;
#X restore 310 393 pd c_adsr;
#X msg 376 360 1 10 100 50 300;
#X obj 376 336 loadbang;
#X msg 352 311 \$1 \$2 \$3 \$4 \$5;
#X obj 352 291 pack f f f f f;
#X obj 366 185 t b f;
#X obj 394 208 t b f;
#X obj 422 228 t b f;
#X obj 451 248 t b f;
#X obj 310 184 t a a;
#X obj 540 54 r 0-envelopes;
#X obj 596 122 * 2000;
#X obj 624 142 * 4000;
#X obj 652 164 * 100;
#X obj 681 185 * 7000;
#N canvas 0 22 960 667 c_adsr 0;
#X obj 115 121 inlet;
#X obj 448 155 inlet;
#X text 111 96 trigger;
#X obj 115 149 sel 0;
#X obj 254 165 t b;
#X obj 176 274 f \$1;
#X obj 176 299 pack 0 \$2;
#X obj 448 291 del \$2;
#X obj 472 314 f \$4;
#X obj 511 389 pack 0 \$3;
#X msg 115 180 stop;
#X obj 622 316 pack 0 \$5;
#X text 445 139 level;
#X obj 511 365 * \$1;
#X obj 468 464 outlet~;
#X text 112 388 and pack with;
#X text 113 408 attack time;
#X text 41 136 if zero;
#X text 42 153 release;
#X text 22 170 and cancel;
#X text 53 187 decay;
#X text 294 282 on attack \, set a;
#X text 288 315 recall sustain value;
#X text 325 388 pack with decay time;
#X text 615 342 on release ramp;
#X text 616 359 back to zero;
#X obj 472 339 * 0.01;
#X text 57 577 Objects such as "f" and "pack" can be given dollar sign
arguments to initialize their contents from adsr's creation arguments.
Inlets are supplied to change them on the fly.;
#X text 23 12 ADSR ENVELOPE;
#X text 498 139 attack;
#X text 565 138 decay;
#X text 619 139 sustain;
#X text 696 139 release;
#X text 212 81 attack;
#X obj 214 102 moses;
#X obj 204 132 t b b;
#X msg 138 300 0;
#X text 30 283 optionally;
#X text 20 301 bash to zero;
#X text 35 256 ATTACK:;
#X text 59 487 When you send this patch a positive trigger it schedules
a line~ to do an attack and decay \, and if zero \, it starts the release
ramp.;
#X text 505 639 Updated for Pd version 0.37;
#X text 265 99 test for negative trigger;
#X text 263 123 if so \, zero;
#X text 264 139 the output;
#X text 288 175 in any case;
#X text 313 365 multiply by peak level;
#X text 290 296 delay for sustain;
#X text 286 338 convert from percent;
#X text 165 350 ... then;
#X text 113 369 recall peak level;
#X text 448 128 peak;
#X text 291 159 ... do this;
#X text 57 539 Negative triggers cause the output to jump to zero and
then attack (instead of attacking from the current location).;
#X text 218 11 Arguments: level \, attack time \, decay time \, sustain
level \, release time. A \, D \, and R are in msec and S is in percent.
This patch is used as an abstraction in various examples.;
#N canvas 228 198 627 317 LICENSE-BSD 0;
#X text 121 56 This software is copyrighted by Miller Puckette \, Reality
Jockey Ltd. and others. The terms (the "Standard Improved BSD License")
apply to all files associated with the software unless explicitly disclaimed
in individual files.;
#X text 123 148 See the file LICENSE.txt for the full license text.
;
#X restore 833 90 pd LICENSE-BSD;
#X obj 448 182 unpack f f f f f;
#X obj 468 439 line~;
#X connect 0 0 3 0;
#X connect 1 0 56 0;
#X connect 3 0 10 0;
#X connect 3 0 11 0;
#X connect 3 1 34 0;
#X connect 4 0 5 0;
#X connect 4 0 7 0;
#X connect 5 0 6 0;
#X connect 6 0 57 0;
#X connect 7 0 8 0;
#X connect 8 0 26 0;
#X connect 9 0 57 0;
#X connect 10 0 7 0;
#X connect 11 0 57 0;
#X connect 13 0 9 0;
#X connect 26 0 13 0;
#X connect 34 0 35 0;
#X connect 34 1 4 0;
#X connect 35 0 4 0;
#X connect 35 1 36 0;
#X connect 36 0 57 0;
#X connect 56 0 5 1;
#X connect 56 0 13 1;
#X connect 56 1 6 1;
#X connect 56 1 7 1;
#X connect 56 2 9 1;
#X connect 56 3 8 1;
#X connect 56 4 11 1;
#X connect 57 0 14 0;
#X restore 540 393 pd c_adsr;
#X msg 606 360 1 10 100 50 300;
#X obj 606 336 loadbang;
#X msg 582 311 \$1 \$2 \$3 \$4 \$5;
#X obj 582 291 pack f f f f f;
#X obj 596 185 t b f;
#X obj 624 208 t b f;
#X obj 652 228 t b f;
#X obj 681 248 t b f;
#X obj 540 184 t a a;
#X obj 366 74 r 0-env2a;
#X obj 394 94 r 0-env2d;
#X obj 422 112 r 0-env2s;
#X obj 451 130 r 0-env2r;
#X obj 310 435 s~ 0-e2;
#X obj 596 74 r 0-env3a;
#X obj 624 94 r 0-env3d;
#X obj 652 112 r 0-env3;
#X obj 681 130 r 0-env3r;
#X obj 540 435 s~ 0-e3;
#X obj 310 54 r 0-envelopes;
#X connect 0 0 5 0;
#X connect 1 0 6 0;
#X connect 2 0 7 0;
#X connect 3 0 8 0;
#X connect 4 0 19 0;
#X connect 5 0 15 0;
#X connect 6 0 16 0;
#X connect 7 0 17 0;
#X connect 8 0 18 0;
#X connect 10 0 9 0;
#X connect 11 0 10 1;
#X connect 12 0 11 0;
#X connect 13 0 10 1;
#X connect 14 0 13 0;
#X connect 15 0 14 0;
#X connect 15 1 14 1;
#X connect 16 0 14 0;
#X connect 16 1 14 2;
#X connect 17 0 14 0;
#X connect 17 1 14 3;
#X connect 18 0 14 0;
#X connect 18 1 14 4;
#X connect 19 0 10 0;
#X connect 19 1 14 0;
#X connect 20 0 29 0;
#X connect 21 0 30 0;
#X connect 22 0 31 0;
#X connect 23 0 32 0;
#X connect 24 0 53 0;
#X connect 25 0 24 1;
#X connect 26 0 25 0;
#X connect 27 0 24 1;
#X connect 28 0 27 0;
#X connect 29 0 28 0;
#X connect 29 1 28 1;
#X connect 30 0 28 0;
#X connect 30 1 28 2;
#X connect 31 0 28 0;
#X connect 31 1 28 3;
#X connect 32 0 28 0;
#X connect 32 1 28 4;
#X connect 33 0 24 0;
#X connect 33 1 28 0;
#X connect 34 0 48 0;
#X connect 35 0 44 0;
#X connect 36 0 45 0;
#X connect 37 0 46 0;
#X connect 38 0 47 0;
#X connect 39 0 58 0;
#X connect 40 0 39 1;
#X connect 41 0 40 0;
#X connect 42 0 39 1;
#X connect 43 0 42 0;
#X connect 44 0 43 0;
#X connect 44 1 43 1;
#X connect 45 0 43 0;
#X connect 45 1 43 2;
#X connect 46 0 43 0;
#X connect 46 1 43 3;
#X connect 47 0 43 0;
#X connect 47 1 43 4;
#X connect 48 0 39 0;
#X connect 48 1 43 0;
#X connect 49 0 20 0;
#X connect 50 0 21 0;
#X connect 51 0 22 0;
#X connect 52 0 23 0;
#X connect 54 0 35 0;
#X connect 55 0 36 0;
#X connect 56 0 37 0;
#X connect 57 0 38 0;
#X connect 59 0 33 0;
#X restore 166 45 pd envelopes;
#X obj 8 451 *~;
#X obj 52 503 *~;
#X obj 77 291 sig~;
#X obj 63 483 r~ 0-keyscale;
#N canvas 0 22 848 695 vibdel 0;
#X obj 392 194 f 0;
#X msg 392 219 0 \, 1 \$1;
#X obj 409 161 * 3000;
#X obj 394 247 line~;
#X obj 377 105 inlet trig;
#X obj 290 121 inlet~;
#X obj 295 327 outlet~;
#X obj 302 284 *~;
#X obj 410 137 inlet fadein;
#X obj 359 284 *~;
#X connect 0 0 1 0;
#X connect 1 0 3 0;
#X connect 2 0 0 1;
#X connect 3 0 9 1;
#X connect 3 0 9 0;
#X connect 4 0 0 0;
#X connect 5 0 7 0;
#X connect 7 0 6 0;
#X connect 8 0 2 0;
#X connect 9 0 7 1;
#X restore 77 322 pd vibdel;
#X obj 53 524 +~;
#X obj 78 271 * 100;
#X obj 68 200 *~ 0.5;
#X obj 91 44 t a b b b b;
#X obj 156 89 > 0;
#X obj 91 68 unpack f f f;
#X obj 159 109 sel 1;
#X obj 52 553 s~ 0-f0;
#N canvas 0 22 450 300 lfo 0;
#X obj 99 104 *~ -1;
#X obj 77 155 min~;
#X obj 99 129 +~ 1;
#X obj 77 80 phasor~ 6;
#X obj 77 177 -~ 0.25;
#X obj 77 199 *~ 2;
#X obj 77 221 outlet~;
#X obj 132 34 t b;
#X msg 132 54 0;
#X obj 132 14 inlet phasesync;
#X obj 78 54 inlet~ f;
#X connect 0 0 2 0;
#X connect 1 0 4 0;
#X connect 2 0 1 1;
#X connect 3 0 0 0;
#X connect 3 0 1 0;
#X connect 4 0 5 0;
#X connect 5 0 6 0;
#X connect 7 0 8 0;
#X connect 8 0 3 1;
#X connect 9 0 7 0;
#X connect 10 0 3 0;
#X restore 8 413 pd lfo;
#X obj 308 623 *~;
#X text 354 549 ajf;
#X obj 350 607 r~ 0-e1;
#X obj 8 377 * 10;
#X obj 450 396 r 0-mod2a;
#X obj 450 416 sig~;
#X obj 430 510 r 0-mod3a;
#X obj 430 528 * 4000;
#X obj 461 317 -~;
#X obj 307 490 *~ 0.33;
#X obj 449 476 +~ 30;
#X obj 307 515 vcf~ 1.6;
#X obj 277 340 *~;
#N canvas 0 22 348 187 oct 0;
#X obj 86 133 pow;
#X obj 86 108 swap 2;
#X obj 88 65 - 2;
#X obj 88 13 inlet;
#X obj 86 162 outlet;
#X obj 166 11 loadbang;
#X msg 166 36 2;
#X obj 87 88 int;
#X obj 87 42 * 4;
#X connect 0 0 4 0;
#X connect 1 0 0 0;
#X connect 1 1 0 1;
#X connect 2 0 7 0;
#X connect 3 0 8 0;
#X connect 5 0 6 0;
#X connect 6 0 8 0;
#X connect 7 0 1 0;
#X connect 8 0 2 0;
#X restore 289 298 pd oct;
#X obj 289 319 sig~;
#X obj 462 337 *~;
#N canvas 0 22 348 187 oct 0;
#X obj 88 114 pow;
#X obj 88 89 swap 2;
#X obj 88 65 - 2;
#X obj 88 13 inlet;
#X obj 88 143 outlet;
#X obj 166 11 loadbang;
#X msg 166 36 2;
#X obj 87 42 * 6;
#X connect 0 0 4 0;
#X connect 1 0 0 0;
#X connect 1 1 0 1;
#X connect 2 0 1 0;
#X connect 3 0 7 0;
#X connect 5 0 6 0;
#X connect 6 0 7 0;
#X connect 7 0 2 0;
#X restore 483 296 pd oct;
#X obj 483 317 sig~;
#X text 95 636 improved junoish \, ajf 2010;
#X obj 307 532 vcf~ 1.6;
#X obj 369 315 *~;
#N canvas 0 22 348 187 oct 0;
#X obj 88 114 pow;
#X obj 88 89 swap 2;
#X obj 88 65 - 2;
#X obj 88 13 inlet;
#X obj 88 143 outlet;
#X obj 166 11 loadbang;
#X msg 166 36 2;
#X obj 86 42 * 4;
#X connect 0 0 4 0;
#X connect 1 0 0 0;
#X connect 1 1 0 1;
#X connect 2 0 1 0;
#X connect 3 0 7 0;
#X connect 5 0 6 0;
#X connect 6 0 7 0;
#X connect 7 0 2 0;
#X restore 381 265 pd oct;
#X obj 381 286 sig~;
#X obj 307 572 *~;
#X obj 402 557 sig~;
#X obj 401 539 + 1;
#X obj 400 521 * 5;
#X obj 359 476 r 0-mod2b;
#X text 358 464 resonance;
#X obj 290 268 r 0-osc1a;
#N canvas 0 22 450 300 xf 0;
#X obj 76 87 inlet~;
#X obj 142 87 inlet~;
#X obj 77 198 outlet~;
#X obj 141 136 -~;
#X obj 141 156 *~;
#X obj 201 87 inlet~;
#X connect 0 0 3 1;
#X connect 0 0 2 0;
#X connect 1 0 3 0;
#X connect 3 0 4 0;
#X connect 4 0 2 0;
#X connect 5 0 4 1;
#X restore 306 440 pd xf;
#X obj 329 399 r 0-osc1b;
#X obj 328 417 sig~;
#N canvas 0 22 450 300 xf 0;
#X obj 76 87 inlet~;
#X obj 142 87 inlet~;
#X obj 77 198 outlet~;
#X obj 141 136 -~;
#X obj 141 156 *~;
#X obj 201 87 inlet~;
#X connect 0 0 3 1;
#X connect 0 0 2 0;
#X connect 1 0 3 0;
#X connect 3 0 4 0;
#X connect 4 0 2 0;
#X connect 5 0 4 1;
#X restore 307 466 pd xf;
#X obj 358 433 sig~;
#X obj 359 415 r 0-osc2b;
#X obj 475 162 sig~;
#X obj 486 124 *~ 30;
#X obj 475 183 *~;
#X obj 475 214 *~;
#X obj 408 287 r 0-osc2d;
#X obj 381 240 r 0-osc2a;
#X obj 306 552 vcf~ 1.6;
#X obj 504 421 *~;
#X obj 449 436 +~;
#X obj 518 399 sig~;
#X obj 449 456 *~ 5000;
#X obj 430 557 + 10;
#X obj 308 589 hip~ 10;
#X obj 308 606 hip~ 10;
#X obj 129 361 *~;
#X obj 142 341 sig~;
#X obj 392 327 *~;
#X text 203 321 pwm mod;
#X obj 142 321 r 0-mod1d;
#X obj 128 384 +~ 0.5;
#X obj 408 305 *~ 0.25;
#X obj 392 346 +~ 0.02;
#X obj 359 499 * 4;
#X obj 359 521 + 0.125;
#X obj 166 383 r 0-osc2c;
#X obj 167 402 sig~;
#X obj 178 345 r~ 0-keyscale;
#X obj 167 423 *~;
#X obj 168 441 *~;
#X obj 178 362 *~ 2;
#N canvas 0 22 450 300 xf 0;
#X obj 76 87 inlet~;
#X obj 142 87 inlet~;
#X obj 77 198 outlet~;
#X obj 141 136 -~;
#X obj 141 156 *~;
#X obj 201 87 inlet~;
#X connect 0 0 3 1;
#X connect 0 0 2 0;
#X connect 1 0 3 0;
#X connect 3 0 4 0;
#X connect 4 0 2 0;
#X connect 5 0 4 1;
#X restore 157 466 pd xf;
#X obj 189 438 sig~;
#X obj 189 419 r 0-mod2d;
#X text 268 48 A Juno/Jupiter style analogue voice engine for 80s style
synthesiser sounds \, ajf 2010;
#X obj 404 587 r 0-mod3b;
#X obj 404 621 sig~;
#X obj 404 603 * 3;
#X obj 309 642 *~;
#X obj 476 612 *~ 0.5;
#X obj 476 589 osc~ 440;
#X obj 308 663 dac~;
#N canvas 0 22 357 243 s_blsaw 0;
#X obj 75 72 inlet~;
#X obj 76 184 outlet~;
#X obj 121 72 inlet;
#X obj 75 139 phasor~;
#N canvas 228 198 627 317 LICENSE-BSD 0;
#X text 121 56 This software is copyrighted by Miller Puckette \, Reality
Jockey Ltd. and others. The terms (the "Standard Improved BSD License")
apply to all files associated with the software unless explicitly disclaimed
in individual files.;
#X text 123 148 See the file LICENSE.txt for the full license text.
;
#X restore 223 70 pd LICENSE-BSD;
#N canvas 0 22 729 531 u_splicetrans 0;
#X obj 87 406 -~;
#X obj 211 247 /~;
#X obj 228 224 clip~ 1 999999;
#X obj 103 277 *~;
#X obj 103 301 clip~ -0.5 0.5;
#X obj 103 325 *~ 1000;
#X obj 103 349 +~ 501;
#X obj 86 229 -~ 0.5;
#X obj 211 196 * 0.4;
#N canvas 388 124 826 683 transition-table 0;
#X obj 428 534 cos~;
#X obj 262 534 cos~;
#X obj 214 529 cos~;
#X msg 158 598 bang;
#X text 242 138 back the phase up one sample;
#X msg 312 445 -0.0005;
#X obj 262 508 *~ 3;
#X obj 427 510 *~ 5;
#X obj 262 559 *~ 0.33333;
#X obj 427 560 *~ -0.2;
#X obj 214 557 *~ -1;
#X msg 159 425 bang;
#X obj 213 488 phasor~ 22.05;
#X obj 214 590 *~ 0.57692;
#X obj 204 259 cos~;
#X obj 156 254 cos~;
#X msg 100 323 bang;
#X msg 217 173 -0.0005;
#X obj 204 233 *~ 3;
#X obj 204 284 *~ 0.33333;
#X obj 156 282 *~ -1;
#X msg 99 137 bang;
#X obj 155 193 phasor~ 22.05;
#X obj 156 315 *~ 0.75;
#X text 292 216 twice the table length;
#X text 280 193 period is 2000 samples \,;
#X text 80 369 This one is used - first and third harmonics only.;
#X text 28 644 This alternate one puts in harmonics 1 \, 3 \, and 5
;
#X text 537 179 ----- 1002 samples ----;
#X text 24 27 This network puts a half cycle of a band-limited square
wave into the table "array1.";
#X text 22 64 Logically the half-cycle is in samples 1 through 1000
\; samples 0 and 1001 are provided so that the 4-point interpolation
will work everywhere.;
#X obj 478 83 f \$1;
#X obj 478 104 select 0 1;
#X obj 478 63 b;
#X obj 155 172 / 1000;
#X obj 213 467 / 1000;
#X obj 562 429 switch~;
#X obj 601 384 delay 100;
#X msg 601 404 0;
#X msg 562 383 1;
#X obj 562 357 t b b;
#X text 470 455 switch off as soon as the table is filled;
#X obj 99 115 r 1-harm0;
#X obj 478 43 r 1-nyquist;
#X obj 511 126 s 1-harm1;
#X obj 478 150 s 1-harm0;
#X obj 543 254 table 1-transition 1002;
#X obj 562 314 r 1-harm0;
#X obj 570 335 r 1-harm1;
#X obj 214 617 tabwrite~ 1-transition;
#X obj 213 445 r 1-nyquist;
#X obj 159 405 r 1-harm1;
#X obj 156 342 tabwrite~ 1-transition;
#X obj 155 152 r 1-nyquist;
#X connect 0 0 9 0;
#X connect 1 0 8 0;
#X connect 2 0 10 0;
#X connect 3 0 49 0;
#X connect 5 0 12 1;
#X connect 6 0 1 0;
#X connect 7 0 0 0;
#X connect 8 0 13 0;
#X connect 9 0 13 0;
#X connect 10 0 13 0;
#X connect 11 0 5 0;
#X connect 11 0 3 0;
#X connect 12 0 2 0;
#X connect 12 0 6 0;
#X connect 12 0 7 0;
#X connect 13 0 49 0;
#X connect 14 0 19 0;
#X connect 15 0 20 0;
#X connect 16 0 52 0;
#X connect 17 0 22 1;
#X connect 18 0 14 0;
#X connect 19 0 23 0;
#X connect 20 0 23 0;
#X connect 21 0 17 0;
#X connect 21 0 16 0;
#X connect 22 0 15 0;
#X connect 22 0 18 0;
#X connect 23 0 52 0;
#X connect 31 0 32 0;
#X connect 32 0 45 0;
#X connect 32 1 44 0;
#X connect 33 0 31 0;
#X connect 34 0 22 0;
#X connect 35 0 12 0;
#X connect 37 0 38 0;
#X connect 38 0 36 0;
#X connect 39 0 36 0;
#X connect 40 0 39 0;
#X connect 40 1 37 0;
#X connect 42 0 21 0;
#X connect 43 0 33 0;
#X connect 47 0 40 0;
#X connect 48 0 40 0;
#X connect 50 0 35 0;
#X connect 51 0 11 0;
#X connect 53 0 34 0;
#X restore 357 283 pd transition-table;
#X obj 86 150 inlet~;
#X obj 86 451 outlet~;
#X obj 306 153 inlet~;
#X obj 87 428 +~ 0.5;
#X text 305 135 frequency of phasor;
#X obj 306 192 samphold~;
#X text 87 475 out: transition spliced \, bandlimited phasor from 0-1
;
#X text 84 127 in: phasor 0-1;
#X obj 498 79 loadbang;
#X obj 498 121 samplerate~;
#X obj 498 147 * 0.5;
#X obj 570 38 r pd;
#X obj 570 65 route dsp;
#X obj 570 91 select 1;
#X text 278 376 for best quality use tabread4~ here \, but tabread~
also works okay and is about twice as fast.;
#N canvas 228 198 627 317 LICENSE-BSD 0;
#X text 121 56 This software is copyrighted by Miller Puckette \, Reality
Jockey Ltd. and others. The terms (the "Standard Improved BSD License")
apply to all files associated with the software unless explicitly disclaimed
in individual files.;
#X text 123 148 See the file LICENSE.txt for the full license text.
;
#X restore 423 40 pd LICENSE-BSD;
#X obj 103 373 tabread~ 1-transition;
#X obj 211 155 r 1-nyquist;
#X obj 498 172 s 1-nyquist;
#X connect 0 0 13 0;
#X connect 1 0 3 1;
#X connect 2 0 1 1;
#X connect 3 0 4 0;
#X connect 4 0 5 0;
#X connect 5 0 6 0;
#X connect 6 0 26 0;
#X connect 7 0 3 0;
#X connect 7 0 0 0;
#X connect 8 0 1 0;
#X connect 10 0 7 0;
#X connect 10 0 15 1;
#X connect 12 0 15 0;
#X connect 13 0 11 0;
#X connect 15 0 2 0;
#X connect 18 0 19 0;
#X connect 19 0 20 0;
#X connect 20 0 28 0;
#X connect 21 0 22 0;
#X connect 22 0 23 0;
#X connect 23 0 19 0;
#X connect 26 0 0 1;
#X connect 27 0 8 0;
#X restore 75 160 pd u_splicetrans;
#X connect 0 0 3 0;
#X connect 0 0 5 1;
#X connect 2 0 3 1;
#X connect 3 0 5 0;
#X connect 5 0 1 0;
#X restore 307 383 pd s_blsaw;
#N canvas 0 22 450 300 s_blsquare 0;
#X obj 90 73 inlet~;
#X obj 91 121 phasor~;
#X obj 275 82 inlet~;
#X obj 345 83 inlet;
#X text 272 61 pwm~;
#X text 88 53 freq~;
#X text 345 65 phase;
#N canvas 525 283 512 505 sigment 0;
#X obj 71 154 wrap~;
#X obj 71 216 -~ 0.5;
#X obj 71 132 -~;
#X obj 70 52 inlet~;
#X text 70 34 phasor~;
#X obj 70 277 outlet~;
#X text 261 29 phase;
#X obj 259 50 inlet~;
#X obj 159 51 inlet~;
#X obj 70 253 *~ -1;
#X text 161 32 freq~;
#N canvas 0 22 729 531 u_splicetrans 0;
#X obj 87 406 -~;
#X obj 211 247 /~;
#X obj 228 224 clip~ 1 999999;
#X obj 103 277 *~;
#X obj 103 301 clip~ -0.5 0.5;
#X obj 103 325 *~ 1000;
#X obj 103 349 +~ 501;
#X obj 86 229 -~ 0.5;
#X obj 211 196 * 0.4;
#N canvas 388 124 826 683 transition-table 0;
#X obj 428 534 cos~;
#X obj 262 534 cos~;
#X obj 214 529 cos~;
#X msg 158 598 bang;
#X text 242 138 back the phase up one sample;
#X msg 312 445 -0.0005;
#X obj 262 508 *~ 3;
#X obj 427 510 *~ 5;
#X obj 262 559 *~ 0.33333;
#X obj 427 560 *~ -0.2;
#X obj 214 557 *~ -1;
#X msg 159 425 bang;
#X obj 213 488 phasor~ 22.05;
#X obj 214 590 *~ 0.57692;
#X obj 204 259 cos~;
#X obj 156 254 cos~;
#X msg 100 323 bang;
#X msg 247 166 -0.0005;
#X obj 204 233 *~ 3;
#X obj 204 284 *~ 0.33333;
#X obj 156 282 *~ -1;
#X msg 99 137 bang;
#X obj 155 193 phasor~ 22.05;
#X obj 156 315 *~ 0.75;
#X text 292 216 twice the table length;
#X text 280 193 period is 2000 samples \,;
#X text 80 369 This one is used - first and third harmonics only.;
#X text 28 644 This alternate one puts in harmonics 1 \, 3 \, and 5
;
#X text 537 179 ----- 1002 samples ----;
#X text 24 27 This network puts a half cycle of a band-limited square
wave into the table "array1.";
#X text 22 64 Logically the half-cycle is in samples 1 through 1000
\; samples 0 and 1001 are provided so that the 4-point interpolation
will work everywhere.;
#X obj 478 83 f \$1;
#X obj 478 104 select 0 1;
#X obj 478 43 r 0-nyquist;
#X obj 478 63 b;
#X obj 155 172 / 1000;
#X obj 213 467 / 1000;
#X obj 562 429 switch~;
#X obj 601 384 delay 100;
#X msg 601 404 0;
#X msg 562 383 1;
#X obj 562 357 t b b;
#X text 470 455 switch off as soon as the table is filled;
#X obj 511 126 s 2-harm1;
#X obj 478 150 s 2-harm0;
#X obj 155 152 r 2-nyquist;
#X obj 159 405 r 2-harm1;
#X obj 213 445 r 2-nyquist;
#X obj 214 617 tabwrite~ 2-transition;
#X obj 570 334 r 2-harm1;
#X obj 562 314 r 2-harm0;
#X obj 543 254 table 2-transition 1002;
#X obj 156 344 tabwrite~ 2-transition;
#X obj 99 115 r 2-harm0;
#X connect 0 0 9 0;
#X connect 1 0 8 0;
#X connect 2 0 10 0;
#X connect 3 0 48 0;
#X connect 5 0 12 1;
#X connect 6 0 1 0;
#X connect 7 0 0 0;
#X connect 8 0 13 0;
#X connect 9 0 13 0;
#X connect 10 0 13 0;
#X connect 11 0 5 0;
#X connect 11 0 3 0;
#X connect 12 0 2 0;
#X connect 12 0 6 0;
#X connect 12 0 7 0;
#X connect 13 0 48 0;
#X connect 14 0 19 0;
#X connect 15 0 20 0;
#X connect 16 0 52 0;
#X connect 17 0 22 1;
#X connect 18 0 14 0;
#X connect 19 0 23 0;
#X connect 20 0 23 0;
#X connect 21 0 17 0;
#X connect 21 0 16 0;
#X connect 22 0 15 0;
#X connect 22 0 18 0;
#X connect 23 0 52 0;
#X connect 31 0 32 0;
#X connect 32 0 44 0;
#X connect 32 1 43 0;
#X connect 33 0 34 0;
#X connect 34 0 31 0;
#X connect 35 0 22 0;
#X connect 36 0 12 0;
#X connect 38 0 39 0;
#X connect 39 0 37 0;
#X connect 40 0 37 0;
#X connect 41 0 40 0;
#X connect 41 1 38 0;
#X connect 45 0 35 0;
#X connect 46 0 11 0;
#X connect 47 0 36 0;
#X connect 49 0 41 0;
#X connect 50 0 41 0;
#X connect 53 0 21 0;
#X restore 357 283 pd transition-table;
#X obj 86 150 inlet~;
#X obj 86 451 outlet~;
#X obj 306 153 inlet~;
#X obj 87 428 +~ 0.5;
#X text 305 135 frequency of phasor;
#X obj 306 192 samphold~;
#X text 87 475 out: transition spliced \, bandlimited phasor from 0-1
;
#X text 84 127 in: phasor 0-1;
#X obj 498 79 loadbang;
#X obj 498 121 samplerate~;
#X obj 498 147 * 0.5;
#X obj 570 38 r pd;
#X obj 570 65 route dsp;
#X obj 570 91 select 1;
#X text 278 376 for best quality use tabread4~ here \, but tabread~
also works okay and is about twice as fast.;
#N canvas 228 198 627 317 LICENSE-BSD 0;
#X text 121 56 This software is copyrighted by Miller Puckette \, Reality
Jockey Ltd. and others. The terms (the "Standard Improved BSD License")
apply to all files associated with the software unless explicitly disclaimed
in individual files.;
#X text 123 148 See the file LICENSE.txt for the full license text.
;
#X restore 423 40 pd LICENSE-BSD;
#X obj 103 373 tabread~ 2-transition;
#X obj 211 155 r 2-nyquist;
#X obj 498 173 s 2-nyquist;
#X connect 0 0 13 0;
#X connect 1 0 3 1;
#X connect 2 0 1 1;
#X connect 3 0 4 0;
#X connect 4 0 5 0;
#X connect 5 0 6 0;
#X connect 6 0 26 0;
#X connect 7 0 3 0;
#X connect 7 0 0 0;
#X connect 8 0 1 0;
#X connect 10 0 7 0;
#X connect 10 0 15 1;
#X connect 12 0 15 0;
#X connect 13 0 11 0;
#X connect 15 0 2 0;
#X connect 18 0 19 0;
#X connect 19 0 20 0;
#X connect 20 0 28 0;
#X connect 21 0 22 0;
#X connect 22 0 23 0;
#X connect 23 0 19 0;
#X connect 26 0 0 1;
#X connect 27 0 8 0;
#X restore 74 181 pd u_splicetrans;
#X connect 0 0 11 0;
#X connect 1 0 9 0;
#X connect 2 0 0 0;
#X connect 3 0 2 0;
#X connect 7 0 2 1;
#X connect 8 0 11 1;
#X connect 9 0 5 0;
#X connect 11 0 1 0;
#X restore 92 184 pd sigment -1;
#N canvas 525 283 508 458 sigment 0;
#X obj 71 154 wrap~;
#X obj 71 216 -~ 0.5;
#X obj 71 132 -~;
#X obj 70 52 inlet~;
#X text 70 34 phasor~;
#X obj 70 277 outlet~;
#X text 261 29 phase;
#X obj 259 50 inlet~;
#X obj 159 51 inlet~;
#X text 161 32 freq~;
#N canvas 0 22 729 531 u_splicetrans 0;
#X obj 87 406 -~;
#X obj 211 247 /~;
#X obj 228 224 clip~ 1 999999;
#X obj 103 277 *~;
#X obj 103 301 clip~ -0.5 0.5;
#X obj 103 325 *~ 1000;
#X obj 103 349 +~ 501;
#X obj 86 229 -~ 0.5;
#X obj 211 196 * 0.4;
#N canvas 388 124 826 683 transition-table 0;
#X obj 428 534 cos~;
#X obj 262 534 cos~;
#X obj 214 529 cos~;
#X msg 158 598 bang;
#X text 242 138 back the phase up one sample;
#X msg 312 445 -0.0005;
#X obj 262 508 *~ 3;
#X obj 427 510 *~ 5;
#X obj 262 559 *~ 0.33333;
#X obj 427 560 *~ -0.2;
#X obj 214 557 *~ -1;
#X msg 159 425 bang;
#X obj 213 488 phasor~ 22.05;
#X obj 214 590 *~ 0.57692;
#X obj 204 259 cos~;
#X obj 156 254 cos~;
#X msg 100 323 bang;
#X msg 247 166 -0.0005;
#X obj 204 233 *~ 3;
#X obj 204 284 *~ 0.33333;
#X obj 156 282 *~ -1;
#X msg 99 137 bang;
#X obj 155 193 phasor~ 22.05;
#X obj 156 315 *~ 0.75;
#X obj 156 342 tabwrite~ 0-transition;
#X text 292 216 twice the table length;
#X text 280 193 period is 2000 samples \,;
#X text 80 369 This one is used - first and third harmonics only.;
#X text 28 644 This alternate one puts in harmonics 1 \, 3 \, and 5
;
#X text 537 179 ----- 1002 samples ----;
#X text 24 27 This network puts a half cycle of a band-limited square
wave into the table "array1.";
#X text 22 64 Logically the half-cycle is in samples 1 through 1000
\; samples 0 and 1001 are provided so that the 4-point interpolation
will work everywhere.;
#X obj 478 83 f \$1;
#X obj 478 104 select 0 1;
#X obj 478 43 r 0-nyquist;
#X obj 478 63 b;
#X obj 155 172 / 1000;
#X obj 213 467 / 1000;
#X obj 562 429 switch~;
#X obj 601 384 delay 100;
#X msg 601 404 0;
#X msg 562 383 1;
#X obj 562 357 t b b;
#X text 470 455 switch off as soon as the table is filled;
#X obj 155 152 r 3-nyquist;
#X obj 478 150 s 3-harm0;
#X obj 511 126 s 3-harm1;
#X obj 562 314 r 3-harm0;
#X obj 570 334 r 3-harm1;
#X obj 543 254 table 3-transition 1002;
#X obj 213 445 r 3-nyquist;
#X obj 159 405 r 3-harm1;
#X obj 214 617 tabwrite~ 3-transition;
#X obj 99 114 r 3-harm0;
#X connect 0 0 9 0;
#X connect 1 0 8 0;
#X connect 2 0 10 0;
#X connect 3 0 52 0;
#X connect 5 0 12 1;
#X connect 6 0 1 0;
#X connect 7 0 0 0;
#X connect 8 0 13 0;
#X connect 9 0 13 0;
#X connect 10 0 13 0;
#X connect 11 0 5 0;
#X connect 11 0 3 0;
#X connect 12 0 2 0;
#X connect 12 0 6 0;
#X connect 12 0 7 0;
#X connect 13 0 52 0;
#X connect 14 0 19 0;
#X connect 15 0 20 0;
#X connect 16 0 24 0;
#X connect 17 0 22 1;
#X connect 18 0 14 0;
#X connect 19 0 23 0;
#X connect 20 0 23 0;
#X connect 21 0 17 0;
#X connect 21 0 16 0;
#X connect 22 0 15 0;
#X connect 22 0 18 0;
#X connect 23 0 24 0;
#X connect 32 0 33 0;
#X connect 33 0 45 0;
#X connect 33 1 46 0;
#X connect 34 0 35 0;
#X connect 35 0 32 0;
#X connect 36 0 22 0;
#X connect 37 0 12 0;
#X connect 39 0 40 0;
#X connect 40 0 38 0;
#X connect 41 0 38 0;
#X connect 42 0 41 0;
#X connect 42 1 39 0;
#X connect 44 0 36 0;
#X connect 47 0 42 0;
#X connect 48 0 42 0;
#X connect 50 0 37 0;
#X connect 51 0 11 0;
#X connect 53 0 21 0;
#X restore 357 283 pd transition-table;
#X obj 86 150 inlet~;
#X obj 86 451 outlet~;
#X obj 306 153 inlet~;
#X obj 87 428 +~ 0.5;
#X text 305 135 frequency of phasor;
#X obj 306 192 samphold~;
#X text 87 475 out: transition spliced \, bandlimited phasor from 0-1
;
#X text 84 127 in: phasor 0-1;
#X obj 498 79 loadbang;
#X obj 498 121 samplerate~;
#X obj 498 147 * 0.5;
#X obj 570 38 r pd;
#X obj 570 65 route dsp;
#X obj 570 91 select 1;
#X text 278 376 for best quality use tabread4~ here \, but tabread~
also works okay and is about twice as fast.;
#N canvas 228 198 627 317 LICENSE-BSD 0;
#X text 121 56 This software is copyrighted by Miller Puckette \, Reality
Jockey Ltd. and others. The terms (the "Standard Improved BSD License")
apply to all files associated with the software unless explicitly disclaimed
in individual files.;
#X text 123 148 See the file LICENSE.txt for the full license text.
;
#X restore 423 40 pd LICENSE-BSD;
#X obj 103 373 tabread~ 3-transition;
#X obj 211 155 r 3-nyquist;
#X obj 498 173 s 3-nyquist;
#X connect 0 0 13 0;
#X connect 1 0 3 1;
#X connect 2 0 1 1;
#X connect 3 0 4 0;
#X connect 4 0 5 0;
#X connect 5 0 6 0;
#X connect 6 0 26 0;
#X connect 7 0 3 0;
#X connect 7 0 0 0;
#X connect 8 0 1 0;
#X connect 10 0 7 0;
#X connect 10 0 15 1;
#X connect 12 0 15 0;
#X connect 13 0 11 0;
#X connect 15 0 2 0;
#X connect 18 0 19 0;
#X connect 19 0 20 0;
#X connect 20 0 28 0;
#X connect 21 0 22 0;
#X connect 22 0 23 0;
#X connect 23 0 19 0;
#X connect 26 0 0 1;
#X connect 27 0 8 0;
#X restore 71 185 pd u_splicetrans;
#X connect 0 0 10 0;
#X connect 1 0 5 0;
#X connect 2 0 0 0;
#X connect 3 0 2 0;
#X connect 7 0 2 1;
#X connect 8 0 10 1;
#X connect 10 0 1 0;
#X restore 195 184 pd sigment 1;
#X obj 91 244 outlet~;
#N canvas 228 198 627 317 LICENSE-BSD 0;
#X text 121 56 This software is copyrighted by Miller Puckette \, Reality
Jockey Ltd. and others. The terms (the "Standard Improved BSD License")
apply to all files associated with the software unless explicitly disclaimed
in individual files.;
#X text 123 148 See the file LICENSE.txt for the full license text.
;
#X restore 343 40 pd LICENSE-BSD;
#X connect 0 0 1 0;
#X connect 0 0 7 1;
#X connect 0 0 8 1;
#X connect 1 0 7 0;
#X connect 1 0 8 0;
#X connect 2 0 8 2;
#X connect 3 0 1 1;
#X connect 7 0 9 0;
#X connect 8 0 9 0;
#X restore 370 367 pd s_blsquare;
#X text 180 14 Z G N A C L;
#X text 263 15 Z G N A C L;
#X text 347 15 Z G N A C L;
#X text 430 16 Z G N A C L;
#N canvas 0 22 357 243 s_blsaw 0;
#X obj 75 72 inlet~;
#X obj 76 184 outlet~;
#X obj 121 72 inlet;
#X obj 75 139 phasor~;
#N canvas 228 198 627 317 LICENSE-BSD 0;
#X text 121 56 This software is copyrighted by Miller Puckette \, Reality
Jockey Ltd. and others. The terms (the "Standard Improved BSD License")
apply to all files associated with the software unless explicitly disclaimed
in individual files.;
#X text 123 148 See the file LICENSE.txt for the full license text.
;
#X restore 223 70 pd LICENSE-BSD;
#N canvas 0 22 729 531 u_splicetrans 0;
#X obj 87 406 -~;
#X obj 211 247 /~;
#X obj 228 224 clip~ 1 999999;
#X obj 103 277 *~;
#X obj 103 301 clip~ -0.5 0.5;
#X obj 103 325 *~ 1000;
#X obj 103 349 +~ 501;
#X obj 86 229 -~ 0.5;
#X obj 211 196 * 0.4;
#N canvas 388 124 826 683 transition-table 0;
#X obj 428 534 cos~;
#X obj 262 534 cos~;
#X obj 214 529 cos~;
#X msg 158 598 bang;
#X text 242 138 back the phase up one sample;
#X msg 312 445 -0.0005;
#X obj 262 508 *~ 3;
#X obj 427 510 *~ 5;
#X obj 262 559 *~ 0.33333;
#X obj 427 560 *~ -0.2;
#X obj 214 557 *~ -1;
#X msg 159 425 bang;
#X obj 213 488 phasor~ 22.05;
#X obj 214 590 *~ 0.57692;
#X obj 204 259 cos~;
#X obj 156 254 cos~;
#X msg 100 323 bang;
#X msg 247 166 -0.0005;
#X obj 204 233 *~ 3;
#X obj 204 284 *~ 0.33333;
#X obj 156 282 *~ -1;
#X msg 99 137 bang;
#X obj 155 193 phasor~ 22.05;
#X obj 156 315 *~ 0.75;
#X text 292 216 twice the table length;
#X text 280 193 period is 2000 samples \,;
#X text 80 369 This one is used - first and third harmonics only.;
#X text 28 644 This alternate one puts in harmonics 1 \, 3 \, and 5
;
#X text 537 179 ----- 1002 samples ----;
#X text 24 27 This network puts a half cycle of a band-limited square
wave into the table "array1.";
#X text 22 64 Logically the half-cycle is in samples 1 through 1000
\; samples 0 and 1001 are provided so that the 4-point interpolation
will work everywhere.;
#X obj 478 83 f \$1;
#X obj 478 104 select 0 1;
#X obj 159 405 r 0-harm1;
#X obj 478 63 b;
#X obj 155 152 r 0-nyquist;
#X obj 155 172 / 1000;
#X obj 213 467 / 1000;
#X obj 562 429 switch~;
#X obj 601 384 delay 100;
#X msg 601 404 0;
#X msg 562 383 1;
#X obj 562 357 t b b;
#X text 470 455 switch off as soon as the table is filled;
#X obj 156 342 tabwrite~ 4-transition;
#X obj 213 445 r 4-nyquist;
#X obj 214 617 tabwrite~ 4-transition;
#X obj 562 314 r 4-harm0;
#X obj 569 334 r 4-harm1;
#X obj 478 150 s 4-harm0;
#X obj 511 126 s 4-harm1;
#X obj 543 254 table 4-transition 1002;
#X obj 99 115 r 4-harm0;
#X obj 478 43 r 4-nyquist;
#X connect 0 0 9 0;
#X connect 1 0 8 0;
#X connect 2 0 10 0;
#X connect 3 0 46 0;
#X connect 5 0 12 1;
#X connect 6 0 1 0;
#X connect 7 0 0 0;
#X connect 8 0 13 0;
#X connect 9 0 13 0;
#X connect 10 0 13 0;
#X connect 11 0 5 0;
#X connect 11 0 3 0;
#X connect 12 0 2 0;
#X connect 12 0 6 0;
#X connect 12 0 7 0;
#X connect 13 0 46 0;
#X connect 14 0 19 0;
#X connect 15 0 20 0;
#X connect 16 0 44 0;
#X connect 17 0 22 1;
#X connect 18 0 14 0;
#X connect 19 0 23 0;
#X connect 20 0 23 0;
#X connect 21 0 17 0;
#X connect 21 0 16 0;
#X connect 22 0 15 0;
#X connect 22 0 18 0;
#X connect 23 0 44 0;
#X connect 31 0 32 0;
#X connect 32 0 49 0;
#X connect 32 1 50 0;
#X connect 33 0 11 0;
#X connect 34 0 31 0;
#X connect 35 0 36 0;
#X connect 36 0 22 0;
#X connect 37 0 12 0;
#X connect 39 0 40 0;
#X connect 40 0 38 0;
#X connect 41 0 38 0;
#X connect 42 0 41 0;
#X connect 42 1 39 0;
#X connect 45 0 37 0;
#X connect 47 0 42 0;
#X connect 48 0 42 0;
#X connect 52 0 21 0;
#X connect 53 0 34 0;
#X restore 357 283 pd transition-table;
#X obj 86 150 inlet~;
#X obj 86 451 outlet~;
#X obj 306 153 inlet~;
#X obj 87 428 +~ 0.5;
#X text 305 135 frequency of phasor;
#X obj 306 192 samphold~;
#X text 87 475 out: transition spliced \, bandlimited phasor from 0-1
;
#X text 84 127 in: phasor 0-1;
#X obj 498 79 loadbang;
#X obj 498 121 samplerate~;
#X obj 498 147 * 0.5;
#X obj 570 38 r pd;
#X obj 570 65 route dsp;
#X obj 570 91 select 1;
#X text 278 376 for best quality use tabread4~ here \, but tabread~
also works okay and is about twice as fast.;
#N canvas 228 198 627 317 LICENSE-BSD 0;
#X text 121 56 This software is copyrighted by Miller Puckette \, Reality
Jockey Ltd. and others. The terms (the "Standard Improved BSD License")
apply to all files associated with the software unless explicitly disclaimed
in individual files.;
#X text 123 148 See the file LICENSE.txt for the full license text.
;
#X restore 423 40 pd LICENSE-BSD;
#X obj 211 155 r 4-nyquist;
#X obj 103 373 tabread~ 4-transition;
#X obj 498 173 s 4-nyquist;
#X connect 0 0 13 0;
#X connect 1 0 3 1;
#X connect 2 0 1 1;
#X connect 3 0 4 0;
#X connect 4 0 5 0;
#X connect 5 0 6 0;
#X connect 6 0 27 0;
#X connect 7 0 3 0;
#X connect 7 0 0 0;
#X connect 8 0 1 0;
#X connect 10 0 7 0;
#X connect 10 0 15 1;
#X connect 12 0 15 0;
#X connect 13 0 11 0;
#X connect 15 0 2 0;
#X connect 18 0 19 0;
#X connect 19 0 20 0;
#X connect 20 0 28 0;
#X connect 21 0 22 0;
#X connect 22 0 23 0;
#X connect 23 0 19 0;
#X connect 26 0 8 0;
#X connect 27 0 0 1;
#X restore 75 160 pd u_splicetrans;
#X connect 0 0 3 0;
#X connect 0 0 5 1;
#X connect 2 0 3 1;
#X connect 3 0 5 0;
#X connect 5 0 1 0;
#X restore 462 365 pd s_blsaw;
#X obj 486 105 r~ 0-keyscale;
#X obj 474 143 r 0-osc2c;
#X obj 502 182 r~ 0-e3;
#X obj 77 254 r 0-mod1b;
#X obj 8 359 r 0-mod1a;
#X obj 120 294 r 0-mod1c;
#X obj 127 238 s~ 0-keyscale;
#X obj 158 156 s 0-envelopes;
#X obj 277 215 r~ 0-f0;
#X obj 483 275 r 0-osc3a;
#X obj 504 359 r~ 0-e2;
#X obj 518 379 r 0-mod2c;
#X connect 0 0 16 0;
#X connect 1 0 0 0;
#X connect 1 0 5 0;
#X connect 2 0 17 0;
#X connect 3 0 114 0;
#X connect 4 0 6 0;
#X connect 5 0 4 0;
#X connect 6 0 113 0;
#X connect 7 0 22 0;
#X connect 9 0 10 0;
#X connect 10 0 14 0;
#X connect 11 0 13 0;
#X connect 12 0 10 1;
#X connect 13 0 9 1;
#X connect 14 0 21 0;
#X connect 15 0 11 0;
#X connect 16 0 14 1;
#X connect 17 0 19 0;
#X connect 17 1 13 1;
#X connect 18 0 20 0;
#X connect 19 0 1 0;
#X connect 19 1 3 0;
#X connect 19 2 18 0;
#X connect 20 0 22 1;
#X connect 22 0 9 0;
#X connect 22 0 73 0;
#X connect 23 0 96 0;
#X connect 25 0 23 1;
#X connect 26 0 7 0;
#X connect 27 0 28 0;
#X connect 28 0 67 0;
#X connect 29 0 30 0;
#X connect 30 0 70 0;
#X connect 31 0 38 0;
#X connect 32 0 34 0;
#X connect 33 0 34 1;
#X connect 33 0 42 1;
#X connect 33 0 65 1;
#X connect 34 0 42 0;
#X connect 35 0 100 0;
#X connect 36 0 37 0;
#X connect 37 0 35 1;
#X connect 38 0 106 0;
#X connect 39 0 40 0;
#X connect 40 0 38 1;
#X connect 42 0 65 0;
#X connect 43 0 101 0;
#X connect 44 0 45 0;
#X connect 45 0 43 1;
#X connect 46 0 71 0;
#X connect 47 0 46 1;
#X connect 48 0 47 0;
#X connect 49 0 48 0;
#X connect 50 0 49 0;
#X connect 50 0 81 0;
#X connect 52 0 36 0;
#X connect 53 0 56 0;
#X connect 54 0 55 0;
#X connect 55 0 53 2;
#X connect 56 0 32 0;
#X connect 57 0 56 2;
#X connect 58 0 57 0;
#X connect 59 0 61 0;
#X connect 60 0 61 1;
#X connect 61 0 62 0;
#X connect 62 0 31 1;
#X connect 63 0 79 0;
#X connect 64 0 44 0;
#X connect 65 0 46 0;
#X connect 66 0 67 1;
#X connect 67 0 69 0;
#X connect 68 0 66 1;
#X connect 69 0 33 0;
#X connect 70 0 71 1;
#X connect 70 0 72 1;
#X connect 71 0 72 0;
#X connect 72 0 23 0;
#X connect 73 0 78 0;
#X connect 74 0 73 1;
#X connect 75 0 80 0;
#X connect 77 0 74 0;
#X connect 78 0 89 0;
#X connect 79 0 75 1;
#X connect 80 0 101 1;
#X connect 81 0 82 0;
#X connect 82 0 34 2;
#X connect 82 0 42 2;
#X connect 82 0 65 2;
#X connect 83 0 84 0;
#X connect 84 0 86 0;
#X connect 85 0 88 0;
#X connect 86 0 87 0;
#X connect 87 0 89 1;
#X connect 88 0 86 1;
#X connect 89 0 75 0;
#X connect 90 0 89 2;
#X connect 91 0 90 0;
#X connect 93 0 95 0;
#X connect 94 0 96 1;
#X connect 95 0 94 0;
#X connect 96 0 99 0;
#X connect 97 0 99 0;
#X connect 97 0 99 1;
#X connect 98 0 97 0;
#X connect 100 0 53 0;
#X connect 101 0 53 1;
#X connect 106 0 56 1;
#X connect 107 0 60 0;
#X connect 108 0 59 0;
#X connect 109 0 62 1;
#X connect 109 0 87 1;
#X connect 110 0 15 0;
#X connect 111 0 26 0;
#X connect 112 0 13 2;
#X connect 115 0 35 0;
#X connect 115 0 43 0;
#X connect 115 0 31 0;
#X connect 116 0 39 0;
#X connect 117 0 66 0;
#X connect 118 0 68 0;
