#N canvas 69 105 1024 684 8;
#X obj 379 620 *~;
#X text 425 546 ajf;
#X obj 421 604 r~ 0-e1;
#X obj 501 525 * 4000;
#X text 166 633 improved junoish \, ajf 2010;
#X obj 378 569 *~;
#X obj 473 554 sig~;
#X obj 472 536 + 1;
#X obj 471 518 * 5;
#X obj 501 554 + 10;
#X obj 379 586 hip~ 10;
#X obj 379 603 hip~ 10;
#X obj 430 518 + 0.125;
#X text 339 45 A Juno/Jupiter style analogue voice engine for 80s style
synthesiser sounds \, ajf 2010;
#X obj 475 584 r 0-mod3b;
#X obj 475 618 sig~;
#X obj 475 600 * 3;
#X obj 380 639 *~;
#X obj 547 609 *~ 0.5;
#X obj 547 586 osc~ 440;
#X obj 379 660 dac~;
#X text 405 14 Z G N A C L;
#X text 488 15 Z G N A C L;
#X text 572 15 Z G N A C L;
#X text 655 16 Z G N A C L;
#X obj 378 512 bp~ 1.6;
#X obj 378 529 bp~ 1.6;
#X obj 377 547 bp~ 1.6;
#X connect 0 0 17 0;
#X connect 2 0 0 1;
#X connect 3 0 9 0;
#X connect 5 0 10 0;
#X connect 6 0 5 1;
#X connect 7 0 6 0;
#X connect 8 0 7 0;
#X connect 9 0 10 1;
#X connect 9 0 11 1;
#X connect 10 0 11 0;
#X connect 11 0 0 0;
#X connect 12 0 25 2;
#X connect 12 0 26 2;
#X connect 12 0 27 2;
#X connect 14 0 16 0;
#X connect 15 0 17 1;
#X connect 16 0 15 0;
#X connect 17 0 20 0;
#X connect 18 0 20 0;
#X connect 18 0 20 1;
#X connect 19 0 18 0;
#X connect 25 0 26 0;
#X connect 26 0 27 0;
#X connect 27 0 5 0;
