#N canvas 69 105 1024 684 8;
#X obj 79 391 sig~;
#X obj 79 448 *~;
#X obj 123 500 *~;
#X obj 148 288 sig~;
#X obj 134 480 r~ 0-keyscale;
#N canvas 0 22 848 695 vibdel 0;
#X obj 392 194 f 0;
#X msg 392 219 0 \, 1 \$1;
#X obj 409 161 * 3000;
#X obj 394 247 line~;
#X obj 377 105 inlet trig;
#X obj 290 121 inlet~;
#X obj 295 327 outlet~;
#X obj 302 284 *~;
#X obj 410 137 inlet fadein;
#X obj 359 284 *~;
#X connect 0 0 1 0;
#X connect 1 0 3 0;
#X connect 2 0 0 1;
#X connect 3 0 9 1;
#X connect 3 0 9 0;
#X connect 4 0 0 0;
#X connect 5 0 7 0;
#X connect 7 0 6 0;
#X connect 8 0 2 0;
#X connect 9 0 7 1;
#X restore 148 319 pd vibdel;
#X obj 124 521 +~;
#X obj 149 268 * 100;
#X obj 123 550 s~ 0-f0;
#N canvas 0 22 450 300 lfo 0;
#X obj 99 104 *~ -1;
#X obj 77 155 min~;
#X obj 99 129 +~ 1;
#X obj 77 80 phasor~ 6;
#X obj 77 177 -~ 0.25;
#X obj 77 199 *~ 2;
#X obj 77 221 outlet~;
#X obj 132 34 t b;
#X msg 132 54 0;
#X obj 132 14 inlet phasesync;
#X obj 78 54 inlet~ f;
#X connect 0 0 2 0;
#X connect 1 0 4 0;
#X connect 2 0 1 1;
#X connect 3 0 0 0;
#X connect 3 0 1 0;
#X connect 4 0 5 0;
#X connect 5 0 6 0;
#X connect 7 0 8 0;
#X connect 8 0 3 1;
#X connect 9 0 7 0;
#X connect 10 0 3 0;
#X restore 79 410 pd lfo;
#X obj 379 620 *~;
#X text 425 546 ajf;
#X obj 421 604 r~ 0-e1;
#X obj 79 374 * 10;
#X obj 521 393 r 0-mod2a;
#X obj 521 413 sig~;
#X obj 501 507 r 0-mod3a;
#X obj 501 525 * 4000;
#X obj 532 314 -~;
#X obj 378 487 *~ 0.33;
#X obj 520 473 +~ 30;
#X obj 378 512 vcf~ 1.6;
#X obj 348 337 *~;
#N canvas 0 22 348 187 oct 0;
#X obj 86 133 pow;
#X obj 86 108 swap 2;
#X obj 88 65 - 2;
#X obj 88 13 inlet;
#X obj 86 162 outlet;
#X obj 166 11 loadbang;
#X msg 166 36 2;
#X obj 87 88 int;
#X obj 87 42 * 4;
#X connect 0 0 4 0;
#X connect 1 0 0 0;
#X connect 1 1 0 1;
#X connect 2 0 7 0;
#X connect 3 0 8 0;
#X connect 5 0 6 0;
#X connect 6 0 8 0;
#X connect 7 0 1 0;
#X connect 8 0 2 0;
#X restore 360 295 pd oct;
#X obj 360 316 sig~;
#X obj 533 334 *~;
#N canvas 0 22 348 187 oct 0;
#X obj 88 114 pow;
#X obj 88 89 swap 2;
#X obj 88 65 - 2;
#X obj 88 13 inlet;
#X obj 88 143 outlet;
#X obj 166 11 loadbang;
#X msg 166 36 2;
#X obj 87 42 * 6;
#X connect 0 0 4 0;
#X connect 1 0 0 0;
#X connect 1 1 0 1;
#X connect 2 0 1 0;
#X connect 3 0 7 0;
#X connect 5 0 6 0;
#X connect 6 0 7 0;
#X connect 7 0 2 0;
#X restore 554 293 pd oct;
#X obj 554 314 sig~;
#X text 166 633 improved junoish \, ajf 2010;
#X obj 378 529 vcf~ 1.6;
#X obj 440 312 *~;
#N canvas 0 22 348 187 oct 0;
#X obj 88 114 pow;
#X obj 88 89 swap 2;
#X obj 88 65 - 2;
#X obj 88 13 inlet;
#X obj 88 143 outlet;
#X obj 166 11 loadbang;
#X msg 166 36 2;
#X obj 86 42 * 4;
#X connect 0 0 4 0;
#X connect 1 0 0 0;
#X connect 1 1 0 1;
#X connect 2 0 1 0;
#X connect 3 0 7 0;
#X connect 5 0 6 0;
#X connect 6 0 7 0;
#X connect 7 0 2 0;
#X restore 452 262 pd oct;
#X obj 452 283 sig~;
#X obj 378 569 *~;
#X obj 473 554 sig~;
#X obj 472 536 + 1;
#X obj 471 518 * 5;
#X obj 430 473 r 0-mod2b;
#X text 429 461 resonance;
#X obj 361 265 r 0-osc1a;
#N canvas 0 22 450 300 xf 0;
#X obj 76 87 inlet~;
#X obj 142 87 inlet~;
#X obj 77 198 outlet~;
#X obj 141 136 -~;
#X obj 141 156 *~;
#X obj 201 87 inlet~;
#X connect 0 0 3 1;
#X connect 0 0 2 0;
#X connect 1 0 3 0;
#X connect 3 0 4 0;
#X connect 4 0 2 0;
#X connect 5 0 4 1;
#X restore 377 437 pd xf;
#X obj 400 396 r 0-osc1b;
#X obj 399 414 sig~;
#N canvas 0 22 450 300 xf 0;
#X obj 76 87 inlet~;
#X obj 142 87 inlet~;
#X obj 77 198 outlet~;
#X obj 141 136 -~;
#X obj 141 156 *~;
#X obj 201 87 inlet~;
#X connect 0 0 3 1;
#X connect 0 0 2 0;
#X connect 1 0 3 0;
#X connect 3 0 4 0;
#X connect 4 0 2 0;
#X connect 5 0 4 1;
#X restore 378 463 pd xf;
#X obj 429 430 sig~;
#X obj 430 412 r 0-osc2b;
#X obj 546 159 sig~;
#X obj 557 121 *~ 30;
#X obj 546 180 *~;
#X obj 546 211 *~;
#X obj 479 284 r 0-osc2d;
#X obj 452 237 r 0-osc2a;
#X obj 377 549 vcf~ 1.6;
#X obj 575 418 *~;
#X obj 520 433 +~;
#X obj 589 396 sig~;
#X obj 520 453 *~ 5000;
#X obj 501 554 + 10;
#X obj 379 586 hip~ 10;
#X obj 379 603 hip~ 10;
#X obj 200 358 *~;
#X obj 213 338 sig~;
#X obj 463 324 *~;
#X text 274 318 pwm mod;
#X obj 213 318 r 0-mod1d;
#X obj 199 381 +~ 0.5;
#X obj 479 302 *~ 0.25;
#X obj 463 343 +~ 0.02;
#X obj 430 496 * 4;
#X obj 430 518 + 0.125;
#X obj 237 380 r 0-osc2c;
#X obj 238 399 sig~;
#X obj 249 342 r~ 0-keyscale;
#X obj 238 420 *~;
#X obj 239 438 *~;
#X obj 249 359 *~ 2;
#N canvas 0 22 450 300 xf 0;
#X obj 76 87 inlet~;
#X obj 142 87 inlet~;
#X obj 77 198 outlet~;
#X obj 141 136 -~;
#X obj 141 156 *~;
#X obj 201 87 inlet~;
#X connect 0 0 3 1;
#X connect 0 0 2 0;
#X connect 1 0 3 0;
#X connect 3 0 4 0;
#X connect 4 0 2 0;
#X connect 5 0 4 1;
#X restore 228 463 pd xf;
#X obj 260 435 sig~;
#X obj 260 416 r 0-mod2d;
#X text 339 45 A Juno/Jupiter style analogue voice engine for 80s style
synthesiser sounds \, ajf 2010;
#X obj 475 584 r 0-mod3b;
#X obj 475 618 sig~;
#X obj 475 600 * 3;
#X obj 380 639 *~;
#X obj 547 609 *~ 0.5;
#X obj 547 586 osc~ 440;
#X obj 379 660 dac~;
#N canvas 0 22 357 243 s_blsaw 0;
#X obj 75 72 inlet~;
#X obj 76 184 outlet~;
#X obj 121 72 inlet;
#X obj 75 139 phasor~;
#N canvas 228 198 627 317 LICENSE-BSD 0;
#X text 121 56 This software is copyrighted by Miller Puckette \, Reality
Jockey Ltd. and others. The terms (the "Standard Improved BSD License")
apply to all files associated with the software unless explicitly disclaimed
in individual files.;
#X text 123 148 See the file LICENSE.txt for the full license text.
;
#X restore 223 70 pd LICENSE-BSD;
#N canvas 0 22 729 531 u_splicetrans 0;
#X obj 87 406 -~;
#X obj 211 247 /~;
#X obj 228 224 clip~ 1 999999;
#X obj 103 277 *~;
#X obj 103 301 clip~ -0.5 0.5;
#X obj 103 325 *~ 1000;
#X obj 103 349 +~ 501;
#X obj 86 229 -~ 0.5;
#X obj 211 196 * 0.4;
#N canvas 388 124 826 683 transition-table 0;
#X obj 428 534 cos~;
#X obj 262 534 cos~;
#X obj 214 529 cos~;
#X msg 158 598 bang;
#X text 242 138 back the phase up one sample;
#X msg 312 445 -0.0005;
#X obj 262 508 *~ 3;
#X obj 427 510 *~ 5;
#X obj 262 559 *~ 0.33333;
#X obj 427 560 *~ -0.2;
#X obj 214 557 *~ -1;
#X msg 159 425 bang;
#X obj 213 488 phasor~ 22.05;
#X obj 214 590 *~ 0.57692;
#X obj 204 259 cos~;
#X obj 156 254 cos~;
#X msg 100 323 bang;
#X msg 217 173 -0.0005;
#X obj 204 233 *~ 3;
#X obj 204 284 *~ 0.33333;
#X obj 156 282 *~ -1;
#X msg 99 137 bang;
#X obj 155 193 phasor~ 22.05;
#X obj 156 315 *~ 0.75;
#X text 292 216 twice the table length;
#X text 280 193 period is 2000 samples \,;
#X text 80 369 This one is used - first and third harmonics only.;
#X text 28 644 This alternate one puts in harmonics 1 \, 3 \, and 5
;
#X text 537 179 ----- 1002 samples ----;
#X text 24 27 This network puts a half cycle of a band-limited square
wave into the table "array1.";
#X text 22 64 Logically the half-cycle is in samples 1 through 1000
\; samples 0 and 1001 are provided so that the 4-point interpolation
will work everywhere.;
#X obj 478 83 f \$1;
#X obj 478 104 select 0 1;
#X obj 478 63 b;
#X obj 155 172 / 1000;
#X obj 213 467 / 1000;
#X obj 562 429 switch~;
#X obj 601 384 delay 100;
#X msg 601 404 0;
#X msg 562 383 1;
#X obj 562 357 t b b;
#X text 470 455 switch off as soon as the table is filled;
#X obj 99 115 r 1-harm0;
#X obj 478 43 r 1-nyquist;
#X obj 511 126 s 1-harm1;
#X obj 478 150 s 1-harm0;
#X obj 543 254 table 1-transition 1002;
#X obj 562 314 r 1-harm0;
#X obj 570 335 r 1-harm1;
#X obj 214 617 tabwrite~ 1-transition;
#X obj 213 445 r 1-nyquist;
#X obj 159 405 r 1-harm1;
#X obj 156 342 tabwrite~ 1-transition;
#X obj 155 152 r 1-nyquist;
#X connect 0 0 9 0;
#X connect 1 0 8 0;
#X connect 2 0 10 0;
#X connect 3 0 49 0;
#X connect 5 0 12 1;
#X connect 6 0 1 0;
#X connect 7 0 0 0;
#X connect 8 0 13 0;
#X connect 9 0 13 0;
#X connect 10 0 13 0;
#X connect 11 0 5 0;
#X connect 11 0 3 0;
#X connect 12 0 2 0;
#X connect 12 0 6 0;
#X connect 12 0 7 0;
#X connect 13 0 49 0;
#X connect 14 0 19 0;
#X connect 15 0 20 0;
#X connect 16 0 52 0;
#X connect 17 0 22 1;
#X connect 18 0 14 0;
#X connect 19 0 23 0;
#X connect 20 0 23 0;
#X connect 21 0 17 0;
#X connect 21 0 16 0;
#X connect 22 0 15 0;
#X connect 22 0 18 0;
#X connect 23 0 52 0;
#X connect 31 0 32 0;
#X connect 32 0 45 0;
#X connect 32 1 44 0;
#X connect 33 0 31 0;
#X connect 34 0 22 0;
#X connect 35 0 12 0;
#X connect 37 0 38 0;
#X connect 38 0 36 0;
#X connect 39 0 36 0;
#X connect 40 0 39 0;
#X connect 40 1 37 0;
#X connect 42 0 21 0;
#X connect 43 0 33 0;
#X connect 47 0 40 0;
#X connect 48 0 40 0;
#X connect 50 0 35 0;
#X connect 51 0 11 0;
#X connect 53 0 34 0;
#X restore 357 283 pd transition-table;
#X obj 86 150 inlet~;
#X obj 86 451 outlet~;
#X obj 306 153 inlet~;
#X obj 87 428 +~ 0.5;
#X text 305 135 frequency of phasor;
#X obj 306 192 samphold~;
#X text 87 475 out: transition spliced \, bandlimited phasor from 0-1
;
#X text 84 127 in: phasor 0-1;
#X obj 498 79 loadbang;
#X obj 498 121 samplerate~;
#X obj 498 147 * 0.5;
#X obj 570 38 r pd;
#X obj 570 65 route dsp;
#X obj 570 91 select 1;
#X text 278 376 for best quality use tabread4~ here \, but tabread~
also works okay and is about twice as fast.;
#N canvas 228 198 627 317 LICENSE-BSD 0;
#X text 121 56 This software is copyrighted by Miller Puckette \, Reality
Jockey Ltd. and others. The terms (the "Standard Improved BSD License")
apply to all files associated with the software unless explicitly disclaimed
in individual files.;
#X text 123 148 See the file LICENSE.txt for the full license text.
;
#X restore 423 40 pd LICENSE-BSD;
#X obj 103 373 tabread~ 1-transition;
#X obj 211 155 r 1-nyquist;
#X obj 498 172 s 1-nyquist;
#X connect 0 0 13 0;
#X connect 1 0 3 1;
#X connect 2 0 1 1;
#X connect 3 0 4 0;
#X connect 4 0 5 0;
#X connect 5 0 6 0;
#X connect 6 0 26 0;
#X connect 7 0 3 0;
#X connect 7 0 0 0;
#X connect 8 0 1 0;
#X connect 10 0 7 0;
#X connect 10 0 15 1;
#X connect 12 0 15 0;
#X connect 13 0 11 0;
#X connect 15 0 2 0;
#X connect 18 0 19 0;
#X connect 19 0 20 0;
#X connect 20 0 28 0;
#X connect 21 0 22 0;
#X connect 22 0 23 0;
#X connect 23 0 19 0;
#X connect 26 0 0 1;
#X connect 27 0 8 0;
#X restore 75 160 pd u_splicetrans;
#X connect 0 0 3 0;
#X connect 0 0 5 1;
#X connect 2 0 3 1;
#X connect 3 0 5 0;
#X connect 5 0 1 0;
#X restore 378 380 pd s_blsaw;
#N canvas 0 22 450 300 s_blsquare 0;
#X obj 90 73 inlet~;
#X obj 91 121 phasor~;
#X obj 275 82 inlet~;
#X obj 345 83 inlet;
#X text 272 61 pwm~;
#X text 88 53 freq~;
#X text 345 65 phase;
#N canvas 525 283 512 505 sigment 0;
#X obj 71 154 wrap~;
#X obj 71 216 -~ 0.5;
#X obj 71 132 -~;
#X obj 70 52 inlet~;
#X text 70 34 phasor~;
#X obj 70 277 outlet~;
#X text 261 29 phase;
#X obj 259 50 inlet~;
#X obj 159 51 inlet~;
#X obj 70 253 *~ -1;
#X text 161 32 freq~;
#N canvas 0 22 729 531 u_splicetrans 0;
#X obj 87 406 -~;
#X obj 211 247 /~;
#X obj 228 224 clip~ 1 999999;
#X obj 103 277 *~;
#X obj 103 301 clip~ -0.5 0.5;
#X obj 103 325 *~ 1000;
#X obj 103 349 +~ 501;
#X obj 86 229 -~ 0.5;
#X obj 211 196 * 0.4;
#N canvas 388 124 826 683 transition-table 0;
#X obj 428 534 cos~;
#X obj 262 534 cos~;
#X obj 214 529 cos~;
#X msg 158 598 bang;
#X text 242 138 back the phase up one sample;
#X msg 312 445 -0.0005;
#X obj 262 508 *~ 3;
#X obj 427 510 *~ 5;
#X obj 262 559 *~ 0.33333;
#X obj 427 560 *~ -0.2;
#X obj 214 557 *~ -1;
#X msg 159 425 bang;
#X obj 213 488 phasor~ 22.05;
#X obj 214 590 *~ 0.57692;
#X obj 204 259 cos~;
#X obj 156 254 cos~;
#X msg 100 323 bang;
#X msg 247 166 -0.0005;
#X obj 204 233 *~ 3;
#X obj 204 284 *~ 0.33333;
#X obj 156 282 *~ -1;
#X msg 99 137 bang;
#X obj 155 193 phasor~ 22.05;
#X obj 156 315 *~ 0.75;
#X text 292 216 twice the table length;
#X text 280 193 period is 2000 samples \,;
#X text 80 369 This one is used - first and third harmonics only.;
#X text 28 644 This alternate one puts in harmonics 1 \, 3 \, and 5
;
#X text 537 179 ----- 1002 samples ----;
#X text 24 27 This network puts a half cycle of a band-limited square
wave into the table "array1.";
#X text 22 64 Logically the half-cycle is in samples 1 through 1000
\; samples 0 and 1001 are provided so that the 4-point interpolation
will work everywhere.;
#X obj 478 83 f \$1;
#X obj 478 104 select 0 1;
#X obj 478 43 r 0-nyquist;
#X obj 478 63 b;
#X obj 155 172 / 1000;
#X obj 213 467 / 1000;
#X obj 562 429 switch~;
#X obj 601 384 delay 100;
#X msg 601 404 0;
#X msg 562 383 1;
#X obj 562 357 t b b;
#X text 470 455 switch off as soon as the table is filled;
#X obj 511 126 s 2-harm1;
#X obj 478 150 s 2-harm0;
#X obj 155 152 r 2-nyquist;
#X obj 159 405 r 2-harm1;
#X obj 213 445 r 2-nyquist;
#X obj 214 617 tabwrite~ 2-transition;
#X obj 570 334 r 2-harm1;
#X obj 562 314 r 2-harm0;
#X obj 543 254 table 2-transition 1002;
#X obj 156 344 tabwrite~ 2-transition;
#X obj 99 115 r 2-harm0;
#X connect 0 0 9 0;
#X connect 1 0 8 0;
#X connect 2 0 10 0;
#X connect 3 0 48 0;
#X connect 5 0 12 1;
#X connect 6 0 1 0;
#X connect 7 0 0 0;
#X connect 8 0 13 0;
#X connect 9 0 13 0;
#X connect 10 0 13 0;
#X connect 11 0 5 0;
#X connect 11 0 3 0;
#X connect 12 0 2 0;
#X connect 12 0 6 0;
#X connect 12 0 7 0;
#X connect 13 0 48 0;
#X connect 14 0 19 0;
#X connect 15 0 20 0;
#X connect 16 0 52 0;
#X connect 17 0 22 1;
#X connect 18 0 14 0;
#X connect 19 0 23 0;
#X connect 20 0 23 0;
#X connect 21 0 17 0;
#X connect 21 0 16 0;
#X connect 22 0 15 0;
#X connect 22 0 18 0;
#X connect 23 0 52 0;
#X connect 31 0 32 0;
#X connect 32 0 44 0;
#X connect 32 1 43 0;
#X connect 33 0 34 0;
#X connect 34 0 31 0;
#X connect 35 0 22 0;
#X connect 36 0 12 0;
#X connect 38 0 39 0;
#X connect 39 0 37 0;
#X connect 40 0 37 0;
#X connect 41 0 40 0;
#X connect 41 1 38 0;
#X connect 45 0 35 0;
#X connect 46 0 11 0;
#X connect 47 0 36 0;
#X connect 49 0 41 0;
#X connect 50 0 41 0;
#X connect 53 0 21 0;
#X restore 357 283 pd transition-table;
#X obj 86 150 inlet~;
#X obj 86 451 outlet~;
#X obj 306 153 inlet~;
#X obj 87 428 +~ 0.5;
#X text 305 135 frequency of phasor;
#X obj 306 192 samphold~;
#X text 87 475 out: transition spliced \, bandlimited phasor from 0-1
;
#X text 84 127 in: phasor 0-1;
#X obj 498 79 loadbang;
#X obj 498 121 samplerate~;
#X obj 498 147 * 0.5;
#X obj 570 38 r pd;
#X obj 570 65 route dsp;
#X obj 570 91 select 1;
#X text 278 376 for best quality use tabread4~ here \, but tabread~
also works okay and is about twice as fast.;
#N canvas 228 198 627 317 LICENSE-BSD 0;
#X text 121 56 This software is copyrighted by Miller Puckette \, Reality
Jockey Ltd. and others. The terms (the "Standard Improved BSD License")
apply to all files associated with the software unless explicitly disclaimed
in individual files.;
#X text 123 148 See the file LICENSE.txt for the full license text.
;
#X restore 423 40 pd LICENSE-BSD;
#X obj 103 373 tabread~ 2-transition;
#X obj 211 155 r 2-nyquist;
#X obj 498 173 s 2-nyquist;
#X connect 0 0 13 0;
#X connect 1 0 3 1;
#X connect 2 0 1 1;
#X connect 3 0 4 0;
#X connect 4 0 5 0;
#X connect 5 0 6 0;
#X connect 6 0 26 0;
#X connect 7 0 3 0;
#X connect 7 0 0 0;
#X connect 8 0 1 0;
#X connect 10 0 7 0;
#X connect 10 0 15 1;
#X connect 12 0 15 0;
#X connect 13 0 11 0;
#X connect 15 0 2 0;
#X connect 18 0 19 0;
#X connect 19 0 20 0;
#X connect 20 0 28 0;
#X connect 21 0 22 0;
#X connect 22 0 23 0;
#X connect 23 0 19 0;
#X connect 26 0 0 1;
#X connect 27 0 8 0;
#X restore 74 181 pd u_splicetrans;
#X connect 0 0 11 0;
#X connect 1 0 9 0;
#X connect 2 0 0 0;
#X connect 3 0 2 0;
#X connect 7 0 2 1;
#X connect 8 0 11 1;
#X connect 9 0 5 0;
#X connect 11 0 1 0;
#X restore 92 184 pd sigment -1;
#N canvas 525 283 508 458 sigment 0;
#X obj 71 154 wrap~;
#X obj 71 216 -~ 0.5;
#X obj 71 132 -~;
#X obj 70 52 inlet~;
#X text 70 34 phasor~;
#X obj 70 277 outlet~;
#X text 261 29 phase;
#X obj 259 50 inlet~;
#X obj 159 51 inlet~;
#X text 161 32 freq~;
#N canvas 0 22 729 531 u_splicetrans 0;
#X obj 87 406 -~;
#X obj 211 247 /~;
#X obj 228 224 clip~ 1 999999;
#X obj 103 277 *~;
#X obj 103 301 clip~ -0.5 0.5;
#X obj 103 325 *~ 1000;
#X obj 103 349 +~ 501;
#X obj 86 229 -~ 0.5;
#X obj 211 196 * 0.4;
#N canvas 388 124 826 683 transition-table 0;
#X obj 428 534 cos~;
#X obj 262 534 cos~;
#X obj 214 529 cos~;
#X msg 158 598 bang;
#X text 242 138 back the phase up one sample;
#X msg 312 445 -0.0005;
#X obj 262 508 *~ 3;
#X obj 427 510 *~ 5;
#X obj 262 559 *~ 0.33333;
#X obj 427 560 *~ -0.2;
#X obj 214 557 *~ -1;
#X msg 159 425 bang;
#X obj 213 488 phasor~ 22.05;
#X obj 214 590 *~ 0.57692;
#X obj 204 259 cos~;
#X obj 156 254 cos~;
#X msg 100 323 bang;
#X msg 247 166 -0.0005;
#X obj 204 233 *~ 3;
#X obj 204 284 *~ 0.33333;
#X obj 156 282 *~ -1;
#X msg 99 137 bang;
#X obj 155 193 phasor~ 22.05;
#X obj 156 315 *~ 0.75;
#X obj 156 342 tabwrite~ 0-transition;
#X text 292 216 twice the table length;
#X text 280 193 period is 2000 samples \,;
#X text 80 369 This one is used - first and third harmonics only.;
#X text 28 644 This alternate one puts in harmonics 1 \, 3 \, and 5
;
#X text 537 179 ----- 1002 samples ----;
#X text 24 27 This network puts a half cycle of a band-limited square
wave into the table "array1.";
#X text 22 64 Logically the half-cycle is in samples 1 through 1000
\; samples 0 and 1001 are provided so that the 4-point interpolation
will work everywhere.;
#X obj 478 83 f \$1;
#X obj 478 104 select 0 1;
#X obj 478 43 r 0-nyquist;
#X obj 478 63 b;
#X obj 155 172 / 1000;
#X obj 213 467 / 1000;
#X obj 562 429 switch~;
#X obj 601 384 delay 100;
#X msg 601 404 0;
#X msg 562 383 1;
#X obj 562 357 t b b;
#X text 470 455 switch off as soon as the table is filled;
#X obj 155 152 r 3-nyquist;
#X obj 478 150 s 3-harm0;
#X obj 511 126 s 3-harm1;
#X obj 562 314 r 3-harm0;
#X obj 570 334 r 3-harm1;
#X obj 543 254 table 3-transition 1002;
#X obj 213 445 r 3-nyquist;
#X obj 159 405 r 3-harm1;
#X obj 214 617 tabwrite~ 3-transition;
#X obj 99 114 r 3-harm0;
#X connect 0 0 9 0;
#X connect 1 0 8 0;
#X connect 2 0 10 0;
#X connect 3 0 52 0;
#X connect 5 0 12 1;
#X connect 6 0 1 0;
#X connect 7 0 0 0;
#X connect 8 0 13 0;
#X connect 9 0 13 0;
#X connect 10 0 13 0;
#X connect 11 0 5 0;
#X connect 11 0 3 0;
#X connect 12 0 2 0;
#X connect 12 0 6 0;
#X connect 12 0 7 0;
#X connect 13 0 52 0;
#X connect 14 0 19 0;
#X connect 15 0 20 0;
#X connect 16 0 24 0;
#X connect 17 0 22 1;
#X connect 18 0 14 0;
#X connect 19 0 23 0;
#X connect 20 0 23 0;
#X connect 21 0 17 0;
#X connect 21 0 16 0;
#X connect 22 0 15 0;
#X connect 22 0 18 0;
#X connect 23 0 24 0;
#X connect 32 0 33 0;
#X connect 33 0 45 0;
#X connect 33 1 46 0;
#X connect 34 0 35 0;
#X connect 35 0 32 0;
#X connect 36 0 22 0;
#X connect 37 0 12 0;
#X connect 39 0 40 0;
#X connect 40 0 38 0;
#X connect 41 0 38 0;
#X connect 42 0 41 0;
#X connect 42 1 39 0;
#X connect 44 0 36 0;
#X connect 47 0 42 0;
#X connect 48 0 42 0;
#X connect 50 0 37 0;
#X connect 51 0 11 0;
#X connect 53 0 21 0;
#X restore 357 283 pd transition-table;
#X obj 86 150 inlet~;
#X obj 86 451 outlet~;
#X obj 306 153 inlet~;
#X obj 87 428 +~ 0.5;
#X text 305 135 frequency of phasor;
#X obj 306 192 samphold~;
#X text 87 475 out: transition spliced \, bandlimited phasor from 0-1
;
#X text 84 127 in: phasor 0-1;
#X obj 498 79 loadbang;
#X obj 498 121 samplerate~;
#X obj 498 147 * 0.5;
#X obj 570 38 r pd;
#X obj 570 65 route dsp;
#X obj 570 91 select 1;
#X text 278 376 for best quality use tabread4~ here \, but tabread~
also works okay and is about twice as fast.;
#N canvas 228 198 627 317 LICENSE-BSD 0;
#X text 121 56 This software is copyrighted by Miller Puckette \, Reality
Jockey Ltd. and others. The terms (the "Standard Improved BSD License")
apply to all files associated with the software unless explicitly disclaimed
in individual files.;
#X text 123 148 See the file LICENSE.txt for the full license text.
;
#X restore 423 40 pd LICENSE-BSD;
#X obj 103 373 tabread~ 3-transition;
#X obj 211 155 r 3-nyquist;
#X obj 498 173 s 3-nyquist;
#X connect 0 0 13 0;
#X connect 1 0 3 1;
#X connect 2 0 1 1;
#X connect 3 0 4 0;
#X connect 4 0 5 0;
#X connect 5 0 6 0;
#X connect 6 0 26 0;
#X connect 7 0 3 0;
#X connect 7 0 0 0;
#X connect 8 0 1 0;
#X connect 10 0 7 0;
#X connect 10 0 15 1;
#X connect 12 0 15 0;
#X connect 13 0 11 0;
#X connect 15 0 2 0;
#X connect 18 0 19 0;
#X connect 19 0 20 0;
#X connect 20 0 28 0;
#X connect 21 0 22 0;
#X connect 22 0 23 0;
#X connect 23 0 19 0;
#X connect 26 0 0 1;
#X connect 27 0 8 0;
#X restore 71 185 pd u_splicetrans;
#X connect 0 0 10 0;
#X connect 1 0 5 0;
#X connect 2 0 0 0;
#X connect 3 0 2 0;
#X connect 7 0 2 1;
#X connect 8 0 10 1;
#X connect 10 0 1 0;
#X restore 195 184 pd sigment 1;
#X obj 91 244 outlet~;
#N canvas 228 198 627 317 LICENSE-BSD 0;
#X text 121 56 This software is copyrighted by Miller Puckette \, Reality
Jockey Ltd. and others. The terms (the "Standard Improved BSD License")
apply to all files associated with the software unless explicitly disclaimed
in individual files.;
#X text 123 148 See the file LICENSE.txt for the full license text.
;
#X restore 343 40 pd LICENSE-BSD;
#X connect 0 0 1 0;
#X connect 0 0 7 1;
#X connect 0 0 8 1;
#X connect 1 0 7 0;
#X connect 1 0 8 0;
#X connect 2 0 8 2;
#X connect 3 0 1 1;
#X connect 7 0 9 0;
#X connect 8 0 9 0;
#X restore 441 364 pd s_blsquare;
#X text 405 14 Z G N A C L;
#X text 488 15 Z G N A C L;
#X text 572 15 Z G N A C L;
#X text 655 16 Z G N A C L;
#N canvas 0 22 357 243 s_blsaw 0;
#X obj 75 72 inlet~;
#X obj 76 184 outlet~;
#X obj 121 72 inlet;
#X obj 75 139 phasor~;
#N canvas 228 198 627 317 LICENSE-BSD 0;
#X text 121 56 This software is copyrighted by Miller Puckette \, Reality
Jockey Ltd. and others. The terms (the "Standard Improved BSD License")
apply to all files associated with the software unless explicitly disclaimed
in individual files.;
#X text 123 148 See the file LICENSE.txt for the full license text.
;
#X restore 223 70 pd LICENSE-BSD;
#N canvas 0 22 729 531 u_splicetrans 0;
#X obj 87 406 -~;
#X obj 211 247 /~;
#X obj 228 224 clip~ 1 999999;
#X obj 103 277 *~;
#X obj 103 301 clip~ -0.5 0.5;
#X obj 103 325 *~ 1000;
#X obj 103 349 +~ 501;
#X obj 86 229 -~ 0.5;
#X obj 211 196 * 0.4;
#N canvas 388 124 826 683 transition-table 0;
#X obj 428 534 cos~;
#X obj 262 534 cos~;
#X obj 214 529 cos~;
#X msg 158 598 bang;
#X text 242 138 back the phase up one sample;
#X msg 312 445 -0.0005;
#X obj 262 508 *~ 3;
#X obj 427 510 *~ 5;
#X obj 262 559 *~ 0.33333;
#X obj 427 560 *~ -0.2;
#X obj 214 557 *~ -1;
#X msg 159 425 bang;
#X obj 213 488 phasor~ 22.05;
#X obj 214 590 *~ 0.57692;
#X obj 204 259 cos~;
#X obj 156 254 cos~;
#X msg 100 323 bang;
#X msg 247 166 -0.0005;
#X obj 204 233 *~ 3;
#X obj 204 284 *~ 0.33333;
#X obj 156 282 *~ -1;
#X msg 99 137 bang;
#X obj 155 193 phasor~ 22.05;
#X obj 156 315 *~ 0.75;
#X text 292 216 twice the table length;
#X text 280 193 period is 2000 samples \,;
#X text 80 369 This one is used - first and third harmonics only.;
#X text 28 644 This alternate one puts in harmonics 1 \, 3 \, and 5
;
#X text 537 179 ----- 1002 samples ----;
#X text 24 27 This network puts a half cycle of a band-limited square
wave into the table "array1.";
#X text 22 64 Logically the half-cycle is in samples 1 through 1000
\; samples 0 and 1001 are provided so that the 4-point interpolation
will work everywhere.;
#X obj 478 83 f \$1;
#X obj 478 104 select 0 1;
#X obj 159 405 r 0-harm1;
#X obj 478 63 b;
#X obj 155 152 r 0-nyquist;
#X obj 155 172 / 1000;
#X obj 213 467 / 1000;
#X obj 562 429 switch~;
#X obj 601 384 delay 100;
#X msg 601 404 0;
#X msg 562 383 1;
#X obj 562 357 t b b;
#X text 470 455 switch off as soon as the table is filled;
#X obj 156 342 tabwrite~ 4-transition;
#X obj 213 445 r 4-nyquist;
#X obj 214 617 tabwrite~ 4-transition;
#X obj 562 314 r 4-harm0;
#X obj 569 334 r 4-harm1;
#X obj 478 150 s 4-harm0;
#X obj 511 126 s 4-harm1;
#X obj 543 254 table 4-transition 1002;
#X obj 99 115 r 4-harm0;
#X obj 478 43 r 4-nyquist;
#X connect 0 0 9 0;
#X connect 1 0 8 0;
#X connect 2 0 10 0;
#X connect 3 0 46 0;
#X connect 5 0 12 1;
#X connect 6 0 1 0;
#X connect 7 0 0 0;
#X connect 8 0 13 0;
#X connect 9 0 13 0;
#X connect 10 0 13 0;
#X connect 11 0 5 0;
#X connect 11 0 3 0;
#X connect 12 0 2 0;
#X connect 12 0 6 0;
#X connect 12 0 7 0;
#X connect 13 0 46 0;
#X connect 14 0 19 0;
#X connect 15 0 20 0;
#X connect 16 0 44 0;
#X connect 17 0 22 1;
#X connect 18 0 14 0;
#X connect 19 0 23 0;
#X connect 20 0 23 0;
#X connect 21 0 17 0;
#X connect 21 0 16 0;
#X connect 22 0 15 0;
#X connect 22 0 18 0;
#X connect 23 0 44 0;
#X connect 31 0 32 0;
#X connect 32 0 49 0;
#X connect 32 1 50 0;
#X connect 33 0 11 0;
#X connect 34 0 31 0;
#X connect 35 0 36 0;
#X connect 36 0 22 0;
#X connect 37 0 12 0;
#X connect 39 0 40 0;
#X connect 40 0 38 0;
#X connect 41 0 38 0;
#X connect 42 0 41 0;
#X connect 42 1 39 0;
#X connect 45 0 37 0;
#X connect 47 0 42 0;
#X connect 48 0 42 0;
#X connect 52 0 21 0;
#X connect 53 0 34 0;
#X restore 357 283 pd transition-table;
#X obj 86 150 inlet~;
#X obj 86 451 outlet~;
#X obj 306 153 inlet~;
#X obj 87 428 +~ 0.5;
#X text 305 135 frequency of phasor;
#X obj 306 192 samphold~;
#X text 87 475 out: transition spliced \, bandlimited phasor from 0-1
;
#X text 84 127 in: phasor 0-1;
#X obj 498 79 loadbang;
#X obj 498 121 samplerate~;
#X obj 498 147 * 0.5;
#X obj 570 38 r pd;
#X obj 570 65 route dsp;
#X obj 570 91 select 1;
#X text 278 376 for best quality use tabread4~ here \, but tabread~
also works okay and is about twice as fast.;
#N canvas 228 198 627 317 LICENSE-BSD 0;
#X text 121 56 This software is copyrighted by Miller Puckette \, Reality
Jockey Ltd. and others. The terms (the "Standard Improved BSD License")
apply to all files associated with the software unless explicitly disclaimed
in individual files.;
#X text 123 148 See the file LICENSE.txt for the full license text.
;
#X restore 423 40 pd LICENSE-BSD;
#X obj 211 155 r 4-nyquist;
#X obj 103 373 tabread~ 4-transition;
#X obj 498 173 s 4-nyquist;
#X connect 0 0 13 0;
#X connect 1 0 3 1;
#X connect 2 0 1 1;
#X connect 3 0 4 0;
#X connect 4 0 5 0;
#X connect 5 0 6 0;
#X connect 6 0 27 0;
#X connect 7 0 3 0;
#X connect 7 0 0 0;
#X connect 8 0 1 0;
#X connect 10 0 7 0;
#X connect 10 0 15 1;
#X connect 12 0 15 0;
#X connect 13 0 11 0;
#X connect 15 0 2 0;
#X connect 18 0 19 0;
#X connect 19 0 20 0;
#X connect 20 0 28 0;
#X connect 21 0 22 0;
#X connect 22 0 23 0;
#X connect 23 0 19 0;
#X connect 26 0 8 0;
#X connect 27 0 0 1;
#X restore 75 160 pd u_splicetrans;
#X connect 0 0 3 0;
#X connect 0 0 5 1;
#X connect 2 0 3 1;
#X connect 3 0 5 0;
#X connect 5 0 1 0;
#X restore 533 362 pd s_blsaw;
#X obj 557 102 r~ 0-keyscale;
#X obj 545 140 r 0-osc2c;
#X obj 573 179 r~ 0-e3;
#X obj 148 251 r 0-mod1b;
#X obj 79 356 r 0-mod1a;
#X obj 191 291 r 0-mod1c;
#X obj 348 212 r~ 0-f0;
#X obj 554 272 r 0-osc3a;
#X obj 575 356 r~ 0-e2;
#X obj 589 376 r 0-mod2c;
#X connect 0 0 9 0;
#X connect 1 0 2 0;
#X connect 2 0 6 0;
#X connect 3 0 5 0;
#X connect 4 0 2 1;
#X connect 5 0 1 1;
#X connect 6 0 8 0;
#X connect 7 0 3 0;
#X connect 9 0 1 0;
#X connect 9 0 60 0;
#X connect 10 0 83 0;
#X connect 12 0 10 1;
#X connect 13 0 0 0;
#X connect 14 0 15 0;
#X connect 15 0 54 0;
#X connect 16 0 17 0;
#X connect 17 0 57 0;
#X connect 18 0 25 0;
#X connect 19 0 21 0;
#X connect 20 0 21 1;
#X connect 20 0 29 1;
#X connect 20 0 52 1;
#X connect 21 0 29 0;
#X connect 22 0 87 0;
#X connect 23 0 24 0;
#X connect 24 0 22 1;
#X connect 25 0 93 0;
#X connect 26 0 27 0;
#X connect 27 0 25 1;
#X connect 29 0 52 0;
#X connect 30 0 88 0;
#X connect 31 0 32 0;
#X connect 32 0 30 1;
#X connect 33 0 58 0;
#X connect 34 0 33 1;
#X connect 35 0 34 0;
#X connect 36 0 35 0;
#X connect 37 0 36 0;
#X connect 37 0 68 0;
#X connect 39 0 23 0;
#X connect 40 0 43 0;
#X connect 41 0 42 0;
#X connect 42 0 40 2;
#X connect 43 0 19 0;
#X connect 44 0 43 2;
#X connect 45 0 44 0;
#X connect 46 0 48 0;
#X connect 47 0 48 1;
#X connect 48 0 49 0;
#X connect 49 0 18 1;
#X connect 50 0 66 0;
#X connect 51 0 31 0;
#X connect 52 0 33 0;
#X connect 53 0 54 1;
#X connect 54 0 56 0;
#X connect 55 0 53 1;
#X connect 56 0 20 0;
#X connect 57 0 58 1;
#X connect 57 0 59 1;
#X connect 58 0 59 0;
#X connect 59 0 10 0;
#X connect 60 0 65 0;
#X connect 61 0 60 1;
#X connect 62 0 67 0;
#X connect 64 0 61 0;
#X connect 65 0 76 0;
#X connect 66 0 62 1;
#X connect 67 0 88 1;
#X connect 68 0 69 0;
#X connect 69 0 21 2;
#X connect 69 0 29 2;
#X connect 69 0 52 2;
#X connect 70 0 71 0;
#X connect 71 0 73 0;
#X connect 72 0 75 0;
#X connect 73 0 74 0;
#X connect 74 0 76 1;
#X connect 75 0 73 1;
#X connect 76 0 62 0;
#X connect 77 0 76 2;
#X connect 78 0 77 0;
#X connect 80 0 82 0;
#X connect 81 0 83 1;
#X connect 82 0 81 0;
#X connect 83 0 86 0;
#X connect 84 0 86 0;
#X connect 84 0 86 1;
#X connect 85 0 84 0;
#X connect 87 0 40 0;
#X connect 88 0 40 1;
#X connect 93 0 43 1;
#X connect 94 0 47 0;
#X connect 95 0 46 0;
#X connect 96 0 49 1;
#X connect 96 0 74 1;
#X connect 97 0 7 0;
#X connect 98 0 13 0;
#X connect 99 0 5 2;
#X connect 100 0 22 0;
#X connect 100 0 30 0;
#X connect 100 0 18 0;
#X connect 101 0 26 0;
#X connect 102 0 53 0;
#X connect 103 0 55 0;
